<svg xmlns="http://www.w3.org/2000/svg" width="2560" height="759" viewBox="0 0 2560 759" version="1.1"><path d="M 71.500 1.485 C 52.458 5.695, 37.494 14.282, 23.921 28.789 C 15.655 37.624, 11.454 44.102, 6.481 55.681 C -0.571 72.101, -0.079 46.360, 0.226 383 L 0.500 686.500 3.367 695 C 8.674 710.731, 14.335 720.273, 24.939 731.362 C 36.026 742.956, 47.432 750.043, 64 755.633 L 72.500 758.500 1274.500 758.799 C 2166.604 759.021, 2478.388 758.806, 2483.823 757.965 C 2511.809 753.633, 2538.116 734.268, 2550.806 708.660 C 2554.833 700.533, 2559 687.621, 2559 683.270 C 2559 682.022, 2559.450 681, 2560 681 C 2560.664 681, 2561 579.480, 2561 378.441 C 2561 212.034, 2560.626 76.113, 2560.168 76.396 C 2559.711 76.679, 2558.858 74.339, 2558.274 71.197 C 2555.518 56.376, 2545.905 38.846, 2534.005 26.939 C 2520.882 13.810, 2505.284 5.408, 2486.685 1.450 C 2480.751 0.188, 2324.469 0.010, 1278.685 0.079 C 284.742 0.145, 76.465 0.388, 71.500 1.485 M 72.107 18.962 C 59.177 22.136, 48.753 28.181, 38.468 38.467 C 28.748 48.188, 24.130 55.632, 19.836 68.500 L 17.500 75.500 17.500 379.500 L 17.500 683.500 20.224 691.500 C 29.146 717.696, 51.607 736.921, 78 740.953 C 83.612 741.810, 387.220 742.023, 1284 741.799 L 2482.500 741.500 2489.500 739.135 C 2510.387 732.079, 2525.064 719.677, 2534.040 701.500 C 2542.254 684.863, 2541.500 717.421, 2541.500 379.500 C 2541.500 94.211, 2541.407 78.161, 2539.723 72 C 2532.479 45.499, 2512.574 25.669, 2486.532 19.008 C 2478.690 17.003, 2477.158 17, 1279.090 17.074 C 123.795 17.145, 79.227 17.214, 72.107 18.962 M 0.494 379.500 C 0.494 546.150, 0.609 614.176, 0.750 530.669 C 0.891 447.162, 0.891 310.812, 0.750 227.669 C 0.609 144.526, 0.494 212.850, 0.494 379.500 M 520 120.488 C 507.154 123.781, 488.739 133.097, 477.967 141.752 C 459.961 156.219, 446.799 176.849, 440.914 199.825 C 438.704 208.454, 437.361 223.319, 438.413 227.511 L 439.108 230.279 446.804 229.623 C 462.278 228.305, 476.480 223.181, 489.881 214.081 C 517.192 195.534, 535.039 162.553, 535.380 130 L 535.500 118.500 532.500 118.276 C 530.850 118.153, 525.225 119.149, 520 120.488 M 1328 189.500 L 1328 255 1338 255 L 1348 255 1348 189.500 L 1348 124 1338 124 L 1328 124 1328 189.500 M 1654 149.500 C 1654 163.525, 1653.746 175, 1653.435 175 C 1653.125 175, 1651.718 173.630, 1650.310 171.956 C 1645.846 166.652, 1640.639 164.667, 1630 164.216 C 1622.042 163.878, 1619.567 164.164, 1614.753 165.977 C 1603.383 170.259, 1593.828 182.144, 1590.540 196.093 C 1587.560 208.735, 1589.136 226.466, 1594.106 236.208 C 1597.304 242.476, 1605.598 250.655, 1611.891 253.745 C 1616.780 256.147, 1618.655 256.495, 1626.500 256.460 C 1633.691 256.428, 1636.551 255.953, 1640.727 254.097 C 1645.622 251.921, 1654 244.300, 1654 242.022 C 1654 241.460, 1654.429 241, 1654.954 241 C 1655.479 241, 1656.042 244.037, 1656.204 247.750 L 1656.500 254.500 1665.409 254.791 L 1674.318 255.083 1673.662 237.791 C 1673.301 228.281, 1673.005 198.788, 1673.003 172.250 L 1673 124 1663.500 124 L 1654 124 1654 149.500 M 2112.667 124.667 C 2112.300 125.033, 2112 154.508, 2112 190.167 L 2112 255 2122 255 L 2132 255 2132.006 226.750 C 2132.009 210.911, 2132.453 196.911, 2133.016 194.882 C 2135.714 185.171, 2143.420 179.602, 2153.263 180.250 C 2160.137 180.703, 2163.459 182.840, 2167 189.089 C 2169.495 193.491, 2169.501 193.564, 2169.815 224.250 L 2170.130 255 2180.065 255 L 2190 255 2190 225.636 C 2190 194.653, 2189.434 188.811, 2185.623 180.487 C 2180.700 169.735, 2173.004 164.770, 2160.345 164.182 C 2153.123 163.846, 2151.486 164.118, 2146.037 166.564 C 2142.098 168.332, 2138.465 170.937, 2135.942 173.803 L 2132 178.282 2132 151.141 L 2132 124 2122.667 124 C 2117.533 124, 2113.033 124.300, 2112.667 124.667 M 838 131.064 C 833.875 131.572, 829.938 132.201, 829.250 132.462 C 828.269 132.835, 828 145.970, 828 193.500 C 828 250.242, 828.110 254.108, 829.750 254.773 C 830.712 255.163, 840.950 255.487, 852.500 255.491 C 876.695 255.501, 884.264 254.252, 897.500 248.062 C 911.836 241.357, 921.610 230.122, 926.631 214.578 C 928.680 208.235, 929.342 203.815, 929.715 194 C 930.542 172.248, 926.130 158.966, 914.079 146.927 C 902.018 134.877, 889.785 130.932, 863 130.454 C 853.375 130.282, 842.125 130.556, 838 131.064 M 2061.500 143.610 C 2060.950 143.764, 2056.563 145.068, 2051.750 146.506 L 2043 149.121 2043 157.013 L 2043 164.905 2036.750 165.202 L 2030.500 165.500 2030.206 172.750 L 2029.912 180 2036.456 180 L 2043 180 2043.008 204.250 C 2043.019 241.409, 2044.940 248.320, 2057 254.584 C 2060.796 256.556, 2073.257 257.149, 2080.250 255.691 C 2083.771 254.957, 2083.999 254.683, 2083.989 251.205 C 2083.983 249.167, 2083.699 245.813, 2083.358 243.750 L 2082.738 240 2076.504 240 C 2069.048 240, 2065.607 237.848, 2064.040 232.205 C 2063.466 230.137, 2063.009 217.784, 2063.006 204.250 L 2063 180 2074.044 180 L 2085.088 180 2084.794 172.750 L 2084.500 165.500 2073.782 165.216 L 2063.065 164.933 2062.782 154.131 C 2062.610 147.541, 2062.110 143.439, 2061.500 143.610 M 849.250 146.662 C 848.275 147.056, 848 157.386, 848 193.583 L 848 240 858.750 239.985 C 876.425 239.961, 887.578 236.264, 896.306 227.536 C 904.548 219.294, 908.963 206.382, 908.968 190.500 C 908.976 166.709, 898.075 151.341, 878.201 147.124 C 872.984 146.018, 851.690 145.678, 849.250 146.662 M 2253.800 164.080 C 2234.592 166.896, 2220.859 184.054, 2219.298 207.181 C 2217.710 230.732, 2227.551 247.343, 2247.083 254.079 C 2255.170 256.868, 2271.783 257.093, 2282.632 254.559 C 2293.240 252.082, 2293.554 251.719, 2291.817 243.923 C 2290.831 239.497, 2289.961 237.596, 2289.019 237.808 C 2288.266 237.978, 2285.160 238.765, 2282.115 239.558 C 2275.683 241.234, 2261.167 241.452, 2255.775 239.954 C 2247.198 237.572, 2239.976 228.927, 2238.481 219.250 L 2237.824 215 2267.912 215 L 2298 215 2297.988 205.750 C 2297.958 181.970, 2286.869 166.851, 2267.395 164.036 C 2263.603 163.488, 2260.275 163.086, 2260 163.142 C 2259.725 163.198, 2256.935 163.620, 2253.800 164.080 M 982.579 166.051 C 968.961 170.855, 959.333 181.626, 955.359 196.500 C 953.787 202.387, 953.620 217.641, 955.061 223.888 C 961.486 251.758, 992.413 265.371, 1018.303 251.724 C 1032.699 244.135, 1041 228.693, 1041 209.500 C 1041 189.664, 1032.631 174.962, 1017.201 167.691 C 1011.145 164.838, 1009.441 164.507, 999.500 164.248 C 990.398 164.011, 987.478 164.322, 982.579 166.051 M 1250.882 165.381 C 1245.206 167.409, 1240.365 170.764, 1236.551 175.312 L 1233.039 179.500 1233.020 173.832 C 1232.989 164.959, 1233.034 165, 1223.236 165 L 1214.686 165 1215.343 181.660 C 1215.704 190.823, 1216 211.089, 1216 226.696 L 1216 255.072 1225.750 254.786 L 1235.500 254.500 1236 223.834 L 1236.500 193.167 1239.513 188.834 C 1247.393 177.501, 1263.731 177.189, 1270.066 188.250 C 1272.482 192.468, 1272.502 192.736, 1272.803 223.750 L 1273.105 255 1283.103 255 L 1293.100 255 1292.798 221.750 C 1292.503 189.334, 1292.435 188.350, 1290.096 182.538 C 1287.086 175.055, 1279.978 167.862, 1273.368 165.610 C 1267.720 163.685, 1255.962 163.565, 1250.882 165.381 M 1407 165.823 C 1399.964 168.150, 1394.433 171.671, 1389.860 176.734 C 1381.293 186.215, 1377.785 196.171, 1377.838 210.845 C 1377.896 226.709, 1382.281 237.486, 1392.467 246.796 C 1399.057 252.819, 1406.301 255.803, 1416.342 256.632 C 1444.555 258.961, 1464.970 239.174, 1464.970 209.500 C 1464.970 190.161, 1456.238 174.911, 1441 167.637 C 1435.124 164.832, 1433.444 164.509, 1423.500 164.269 C 1414.998 164.063, 1411.251 164.416, 1407 165.823 M 1508.322 165.527 C 1501.101 167.473, 1494.056 170.937, 1494.485 172.331 C 1496.798 179.843, 1498.214 184, 1498.460 184 C 1498.624 184, 1501.330 182.823, 1504.474 181.383 C 1512.665 177.633, 1524.794 176.931, 1531.343 179.828 C 1535.097 181.488, 1536.457 182.790, 1538.008 186.207 C 1539.079 188.568, 1539.966 191.898, 1539.978 193.607 L 1540 196.713 1531.102 197.385 C 1504.201 199.415, 1489.531 209.930, 1488.225 228.116 C 1487.584 237.055, 1489.745 243.374, 1495.267 248.699 C 1502.048 255.240, 1505.189 256.442, 1515.500 256.441 C 1525.894 256.440, 1531.132 254.586, 1537.828 248.537 L 1541.911 244.848 1542.584 249.924 L 1543.258 255 1551.879 255 L 1560.500 255.001 1560.200 225.250 C 1560.035 208.888, 1559.476 193.025, 1558.957 190 C 1556.843 177.672, 1549.439 168.693, 1538.774 165.526 C 1532.323 163.610, 1515.433 163.611, 1508.322 165.527 M 1785.395 166.083 C 1774.174 169.946, 1764.513 179.371, 1759.936 190.919 C 1756.822 198.777, 1756.045 217.201, 1758.474 225.560 C 1760.882 233.841, 1763.479 238.528, 1768.827 244.246 C 1784.008 260.476, 1813.215 261.104, 1829.836 245.557 C 1838.900 237.079, 1844 224.095, 1844 209.500 C 1844 189.958, 1835.332 174.823, 1820.003 167.599 C 1814.164 164.847, 1812.377 164.506, 1802.500 164.258 C 1793.429 164.030, 1790.429 164.350, 1785.395 166.083 M 1908.882 165.381 C 1903.324 167.367, 1898.373 170.747, 1894.649 175.097 L 1891.264 179.052 1890.571 172.026 L 1889.879 165 1881.439 165 L 1873 165 1873 210 L 1873 255 1882.945 255 L 1892.890 255 1893.195 225.250 C 1893.486 196.856, 1893.600 195.313, 1895.691 191.405 C 1901.904 179.796, 1915.622 176.339, 1924.511 184.143 C 1930.391 189.306, 1931 193.254, 1931 226.182 L 1931 255 1941 255 L 1951 255 1951 225.049 C 1951 193.500, 1950.426 187.797, 1946.466 180 C 1941.095 169.426, 1932.087 163.999, 1920 164.054 C 1915.875 164.072, 1910.872 164.670, 1908.882 165.381 M 1061 165.856 C 1061 166.620, 1078.199 225.642, 1084.573 246.750 L 1087.064 255 1096.282 254.996 L 1105.500 254.991 1112.787 231.746 C 1120.726 206.422, 1123.956 194.738, 1123.983 191.250 C 1124.017 186.795, 1125.765 189.128, 1126.966 195.231 C 1128.047 200.725, 1133.954 221.564, 1141.581 246.787 L 1144.087 255.074 1153.249 254.787 L 1162.411 254.500 1176.184 210.500 C 1183.759 186.300, 1189.967 166.146, 1189.979 165.714 C 1189.990 165.281, 1185.641 165.056, 1180.312 165.214 L 1170.625 165.500 1165.296 186 C 1160.745 203.506, 1157.657 216.491, 1154.119 233 C 1153.406 236.326, 1153.280 236.102, 1151.586 228.500 C 1150.234 222.435, 1139.010 182.130, 1134.378 166.711 C 1133.909 165.150, 1132.802 164.959, 1125.724 165.211 L 1117.607 165.500 1109.322 193.500 C 1104.766 208.900, 1100.265 224.875, 1099.321 229 L 1097.605 236.500 1096.206 230 C 1094.389 221.558, 1082.091 169.031, 1081.398 166.750 C 1080.937 165.237, 1079.523 165, 1070.933 165 C 1065.470 165, 1061 165.385, 1061 165.856 M 2253.625 178.469 C 2246.568 180.985, 2240.341 189.013, 2238.671 197.750 L 2238.050 201 2258.525 201 L 2279 201 2278.978 196.750 C 2278.934 188.230, 2273.040 180.216, 2265.219 178.044 C 2260.411 176.709, 2258.352 176.784, 2253.625 178.469 M 991.843 178.919 C 979.965 182.756, 973.171 196.146, 974.255 213.582 C 975.037 226.149, 980.247 236.045, 988.226 240.115 C 993.571 242.842, 1003.563 242.456, 1007.739 239.360 C 1015.754 233.420, 1020.329 222.750, 1020.329 210 C 1020.329 196.861, 1015.221 185.369, 1007.332 180.762 C 1003.686 178.632, 995.678 177.680, 991.843 178.919 M 1415 179.119 C 1409.269 180.839, 1405.321 184.602, 1401.850 191.653 C 1399.034 197.373, 1398.523 199.587, 1398.173 207.585 C 1397.268 228.278, 1406.346 242, 1420.941 242 C 1430.084 242, 1435.902 237.728, 1440.692 227.497 C 1443.263 222.006, 1443.500 220.522, 1443.500 209.899 C 1443.500 198.614, 1443.405 198.112, 1440 191.441 C 1435.692 183.001, 1430.800 179.171, 1423.494 178.516 C 1420.747 178.270, 1416.925 178.542, 1415 179.119 M 1794.994 178.879 C 1789.742 180.593, 1786.278 182.993, 1783.730 186.680 C 1778.470 194.298, 1777.570 197.684, 1777.534 210 C 1777.503 220.550, 1777.732 221.995, 1780.308 227.497 C 1783.652 234.639, 1786.160 237.508, 1791.418 240.203 C 1797.175 243.155, 1806.441 242.426, 1811.418 238.631 C 1819.175 232.714, 1823 223.239, 1823 209.940 C 1823 196.060, 1818.384 185.486, 1810.240 180.714 C 1806.728 178.656, 1798.654 177.684, 1794.994 178.879 M 1625.500 180.061 C 1620.655 181.483, 1615.330 186.623, 1612.331 192.771 C 1609.772 198.019, 1609.536 199.465, 1609.519 210 C 1609.502 219.981, 1609.813 222.192, 1611.870 226.742 C 1620.107 244.964, 1642.615 245.803, 1651.146 228.206 C 1653.156 224.058, 1653.430 221.957, 1653.456 210.500 C 1653.488 195.904, 1652.501 191.779, 1647.653 186.257 C 1642.153 179.993, 1633.744 177.641, 1625.500 180.061 M 1528.066 211.064 C 1520.106 212.122, 1513.211 215.564, 1510.250 219.957 C 1507.562 223.946, 1507.214 231.579, 1509.517 236.033 C 1513.873 244.457, 1528.891 243.861, 1536.375 234.967 C 1539.787 230.911, 1540.465 228.193, 1540.484 218.500 L 1540.500 210.500 1537.500 210.355 C 1535.850 210.275, 1531.605 210.594, 1528.066 211.064 M 510 236.421 C 499.516 238.629, 492.502 240.854, 475 247.522 C 465.925 250.980, 455.836 254.581, 452.579 255.525 C 443.557 258.140, 434.883 257.177, 421.500 252.072 C 383.951 237.749, 374.141 235.328, 358 236.401 C 301.703 240.141, 258.463 281.533, 245.911 343.701 C 243.194 357.155, 242.185 388.419, 243.922 405.277 C 247.025 435.376, 256.492 469.172, 270.481 500.095 C 287.226 537.108, 318.665 579.133, 339.854 592.828 C 350.885 599.956, 355.856 601.422, 369 601.422 C 381.400 601.421, 384.822 600.497, 412.854 589.574 C 425.945 584.473, 434.476 582.857, 448.500 582.824 C 463.524 582.789, 472.895 584.895, 491.355 592.459 C 508.012 599.283, 514.957 600.966, 526.540 600.985 C 549.712 601.023, 566.942 590.224, 588.098 562.403 C 599.078 547.964, 615.419 521.960, 621.971 508.500 C 628.017 496.080, 636 476.486, 636 474.066 C 636 473.578, 633.865 472.145, 631.254 470.881 C 616.592 463.783, 597.511 447.128, 588.647 433.692 C 572.440 409.123, 567.213 375.645, 575.085 346.831 C 577.787 336.943, 585.656 321.044, 592.076 312.500 C 598.619 303.794, 609.809 292.744, 617.308 287.584 C 620.439 285.430, 623 283.230, 623 282.695 C 623 280.964, 611.937 268.142, 606.138 263.153 C 591.342 250.422, 575.207 242.281, 556 237.858 C 544.776 235.273, 519.237 234.475, 510 236.421 M 1579.633 343.553 C 1569.918 345.483, 1563.620 347.671, 1555 352.112 C 1530.883 364.536, 1517.752 385.666, 1517.782 412 C 1517.820 444.048, 1537.274 466.020, 1581.500 483.964 C 1609.975 495.517, 1620.289 502.891, 1626.306 516 C 1627.913 519.500, 1628.386 522.616, 1628.436 530.021 C 1628.495 538.833, 1628.255 540.040, 1625.208 546.229 C 1617.454 561.980, 1601.497 568.876, 1575.563 567.683 C 1557.286 566.843, 1539.018 561.843, 1525.862 554.081 L 1522.285 551.971 1518.081 567.235 C 1515.769 575.631, 1513.657 583.265, 1513.387 584.200 C 1512.269 588.078, 1532.977 596.393, 1551.500 599.504 C 1565.077 601.784, 1590.473 601.827, 1602.500 599.590 C 1624.653 595.471, 1639.967 587.586, 1652.310 573.946 C 1663.666 561.398, 1669.056 546.432, 1669.102 527.321 C 1669.158 504.272, 1661.513 487.815, 1644.328 473.991 C 1633.923 465.620, 1625.090 460.689, 1604.687 451.861 C 1576.770 439.781, 1566.474 432.807, 1561.551 422.642 C 1552.636 404.233, 1561.453 384.881, 1582 377.754 C 1587.703 375.776, 1590.339 375.514, 1603.500 375.615 C 1620.088 375.743, 1631.815 378.073, 1643.284 383.519 C 1646.465 385.030, 1649.288 386.045, 1649.558 385.775 C 1649.828 385.505, 1652.237 378.222, 1654.910 369.590 L 1659.770 353.896 1657.635 352.506 C 1653.768 349.988, 1637.615 345.108, 1627.973 343.544 C 1616.186 341.633, 1589.271 341.637, 1579.633 343.553 M 848.074 461.250 C 827.497 525.188, 809.200 582.121, 807.414 587.770 L 804.169 598.039 825.231 597.770 L 846.293 597.500 857.397 560.751 L 868.500 524.002 909.579 524.001 L 950.657 524 960.479 554.750 C 965.881 571.663, 971.155 588.313, 972.198 591.750 L 974.094 598 995.664 598 C 1015.721 598, 1017.200 597.877, 1016.756 596.250 C 1016.493 595.288, 998.126 538.362, 975.941 469.750 L 935.604 345 910.546 345 L 885.488 345 848.074 461.250 M 1737.250 376.718 L 1719 382.327 1719 399.164 L 1719 416 1705.500 416 L 1692 416 1692 431 L 1692 446 1705.446 446 L 1718.892 446 1719.235 501.750 C 1719.566 555.474, 1719.658 557.784, 1721.765 565.314 C 1727.172 584.640, 1738.284 596.047, 1755.615 600.063 C 1765.192 602.282, 1790.489 601.046, 1798.597 597.963 C 1800.883 597.094, 1801 596.623, 1800.993 588.275 C 1800.989 583.449, 1800.706 576.534, 1800.363 572.908 L 1799.740 566.316 1795.620 567.114 C 1793.354 567.554, 1788.125 567.923, 1784 567.934 C 1772.132 567.969, 1766.417 564.507, 1761.799 554.488 C 1759.507 549.516, 1759.499 549.331, 1759.208 497.750 L 1758.916 446 1780.958 446 L 1803 446 1803 431 L 1803 416 1781 416 L 1759 416 1759 393.500 C 1759 372.717, 1758.866 371.004, 1757.250 371.054 C 1756.287 371.084, 1747.287 373.633, 1737.250 376.718 M 908.643 380 C 908.325 380.825, 905.782 390.725, 902.992 402 C 899.139 417.578, 880.205 480.483, 876.335 490.569 C 875.866 491.793, 880.654 492, 909.393 492 C 927.877 492, 943 491.775, 943 491.501 C 943 491.226, 937.782 474.913, 931.404 455.251 C 925.026 435.588, 917.426 410.275, 914.515 399 C 911.604 387.725, 908.962 379.175, 908.643 380 M 1134 413.545 C 1124.260 415.622, 1114.639 419.688, 1108.229 424.438 C 1102.233 428.880, 1094.645 436.559, 1091.484 441.385 C 1089.813 443.934, 1089.556 444.033, 1088.938 442.360 C 1088.560 441.337, 1087.919 434.988, 1087.515 428.250 L 1086.779 416 1068.738 416 L 1050.696 416 1051.348 426.656 C 1051.707 432.516, 1052 490.116, 1052 554.656 L 1052 672 1072.500 672 L 1093 672 1093.052 623.750 C 1093.101 578.729, 1093.214 575.667, 1094.740 578 C 1098.174 583.252, 1108.732 592.613, 1114.207 595.260 C 1124.189 600.087, 1131.220 601.477, 1145.500 601.449 C 1160.612 601.418, 1170.225 599.222, 1181 593.337 C 1203.145 581.243, 1217.508 560.553, 1223.705 531.822 C 1226.486 518.927, 1226.216 487.636, 1223.220 475.693 C 1213.166 435.618, 1185.431 411.753, 1149.292 412.079 C 1144.456 412.123, 1137.575 412.783, 1134 413.545 M 1345.121 413.127 C 1327.323 416.083, 1313.633 424.863, 1300.194 441.940 L 1298.274 444.380 1297.665 437.940 C 1297.330 434.398, 1296.766 428.012, 1296.411 423.750 L 1295.765 416 1277.773 416 L 1259.781 416 1260.439 419.750 C 1260.801 421.813, 1261.347 479.413, 1261.653 547.750 L 1262.209 672 1282.104 672 L 1302 672 1302.032 623.750 L 1302.063 575.500 1304.209 578.500 C 1315.810 594.719, 1334.989 602.887, 1358.500 601.621 C 1370.903 600.953, 1378.220 599.104, 1388.500 594.038 C 1403.562 586.616, 1415.221 574.918, 1423.420 559 C 1431.761 542.806, 1435.070 527.348, 1435.099 504.446 C 1435.138 472.930, 1426.753 449.872, 1408.846 432.257 C 1398.401 421.983, 1388.054 416.177, 1375.412 413.499 C 1367.852 411.898, 1353.579 411.722, 1345.121 413.127 M 1897.607 413.605 C 1874.155 417.840, 1855.404 430.063, 1842.419 449.579 C 1830.250 467.867, 1825.049 488.793, 1826.303 514.415 C 1827.645 541.824, 1837.089 563.468, 1855.098 580.411 C 1864.351 589.115, 1876.307 595.631, 1889.500 599.160 C 1900.177 602.016, 1925.867 602.307, 1936.353 599.691 C 1970.037 591.287, 1993.416 566.867, 2001.640 531.500 C 2004.498 519.208, 2004.264 489.754, 2001.211 477.623 C 1994.090 449.326, 1975.786 427.619, 1950.978 418.052 C 1935.887 412.232, 1914.894 410.483, 1897.607 413.605 M 2113.105 413.583 C 2098.444 417.525, 2087.244 427.514, 2078.705 444.265 L 2075.526 450.500 2074.880 444 C 2074.525 440.425, 2074.181 432.663, 2074.117 426.750 L 2074 416 2055.950 416 L 2037.901 416 2038.700 422.250 C 2039.140 425.688, 2039.469 466.637, 2039.431 513.250 L 2039.363 598 2059.681 598 L 2080 598 2080.017 545.750 C 2080.036 488.357, 2080.318 484.935, 2085.978 473.408 C 2094.081 456.906, 2108.986 448.794, 2128.250 450.401 L 2136 451.047 2136 432.130 C 2136 415.804, 2135.783 413.131, 2134.418 412.607 C 2131.559 411.510, 2118.607 412.103, 2113.105 413.583 M 2223.075 413.030 C 2191.586 419.616, 2167.364 444.156, 2158.385 478.571 C 2155.193 490.806, 2154.035 513.963, 2155.957 527.143 C 2158.404 543.929, 2165.179 560.037, 2174.691 571.683 C 2182.886 581.718, 2198.540 592.208, 2211.500 596.349 C 2229.458 602.088, 2258.802 602.545, 2282.500 597.456 C 2291.652 595.491, 2305.115 590.864, 2305.636 589.505 C 2306.045 588.440, 2300.652 563.319, 2299.840 562.507 C 2299.606 562.273, 2296.059 563.140, 2291.957 564.435 C 2266.781 572.381, 2235.797 571.887, 2219.675 563.281 C 2212.510 559.456, 2203.061 549.723, 2199.668 542.674 C 2196.755 536.622, 2194.047 525.876, 2194.017 520.250 L 2194 517 2254.375 517 L 2314.750 517 2315.375 513.875 C 2316.744 507.029, 2315.988 483.571, 2314.106 474.500 C 2307.867 444.428, 2291.781 424.283, 2267.118 415.656 C 2259.172 412.877, 2257.291 412.621, 2243 412.373 C 2234.475 412.225, 2225.509 412.521, 2223.075 413.030 M 2226.500 441.339 C 2211.603 446.298, 2200.196 459.631, 2195.533 477.533 C 2194.690 480.771, 2194 484.456, 2194 485.721 L 2194 488.022 2235.750 487.761 L 2277.500 487.500 2277.800 484.427 C 2278.236 479.961, 2275.463 467.691, 2272.607 461.454 C 2269.328 454.291, 2262.011 446.642, 2255.296 443.356 C 2250.777 441.146, 2248.184 440.630, 2240.171 440.348 C 2233.915 440.128, 2229.087 440.478, 2226.500 441.339 M 1902.500 443.348 C 1895.573 445.638, 1890.653 448.681, 1885.810 453.669 C 1875.742 464.039, 1870.024 477.685, 1867.923 496.362 C 1864.280 528.737, 1876.732 558.954, 1897.782 568.820 C 1902.900 571.219, 1904.657 571.500, 1914.521 571.500 C 1924.951 571.500, 1925.899 571.324, 1932.193 568.226 C 1950.304 559.310, 1962 535.089, 1962 506.500 C 1962 478.062, 1950.813 454.449, 1933.243 445.799 C 1927.275 442.861, 1925.616 442.511, 1916.558 442.281 C 1910.228 442.120, 1905.017 442.516, 1902.500 443.348 M 1129.317 445.046 C 1117.856 447.311, 1104.756 457.546, 1099.275 468.517 C 1093.694 479.686, 1092.791 486.105, 1093.201 511.649 C 1093.533 532.269, 1093.786 535.086, 1095.794 540.500 C 1102.228 557.851, 1115.788 568.357, 1133.500 569.712 C 1157.111 571.520, 1174.889 557.125, 1182.175 530.300 C 1185.019 519.829, 1185.281 495.064, 1182.660 484.528 C 1175.553 455.958, 1154.172 440.133, 1129.317 445.046 M 1337.500 445.386 C 1320.353 449.556, 1307.392 463.993, 1303.544 483.208 C 1301.744 492.193, 1301.432 521.762, 1303.029 532 C 1305.036 544.871, 1313.755 558.257, 1324.068 564.299 C 1335.828 571.190, 1352.833 571.747, 1366 565.674 C 1376.778 560.702, 1387.178 546.233, 1391.642 530 C 1394.228 520.597, 1394.239 492.197, 1391.660 483 C 1385.875 462.366, 1373.050 448.664, 1356.201 445.116 C 1349.619 443.730, 1343.975 443.811, 1337.500 445.386" stroke="none" fill="#e4e4e4" fill-rule="evenodd"/><path d="M 72.107 18.962 C 59.177 22.136, 48.753 28.181, 38.468 38.467 C 28.748 48.188, 24.130 55.632, 19.836 68.500 L 17.500 75.500 17.500 379.500 L 17.500 683.500 20.224 691.500 C 29.146 717.696, 51.607 736.921, 78 740.953 C 83.612 741.810, 387.220 742.023, 1284 741.799 L 2482.500 741.500 2489.500 739.135 C 2510.387 732.079, 2525.064 719.677, 2534.040 701.500 C 2542.254 684.863, 2541.500 717.421, 2541.500 379.500 C 2541.500 94.211, 2541.407 78.161, 2539.723 72 C 2532.479 45.499, 2512.574 25.669, 2486.532 19.008 C 2478.690 17.003, 2477.158 17, 1279.090 17.074 C 123.795 17.145, 79.227 17.214, 72.107 18.962 M 520 120.488 C 507.154 123.781, 488.739 133.097, 477.967 141.752 C 459.961 156.219, 446.799 176.849, 440.914 199.825 C 438.704 208.454, 437.361 223.319, 438.413 227.511 L 439.108 230.279 446.804 229.623 C 462.278 228.305, 476.480 223.181, 489.881 214.081 C 517.192 195.534, 535.039 162.553, 535.380 130 L 535.500 118.500 532.500 118.276 C 530.850 118.153, 525.225 119.149, 520 120.488 M 1328 189.500 L 1328 255 1338 255 L 1348 255 1348 189.500 L 1348 124 1338 124 L 1328 124 1328 189.500 M 1654 149.500 C 1654 163.525, 1653.746 175, 1653.435 175 C 1653.125 175, 1651.718 173.630, 1650.310 171.956 C 1645.846 166.652, 1640.639 164.667, 1630 164.216 C 1622.042 163.878, 1619.567 164.164, 1614.753 165.977 C 1603.383 170.259, 1593.828 182.144, 1590.540 196.093 C 1587.560 208.735, 1589.136 226.466, 1594.106 236.208 C 1597.304 242.476, 1605.598 250.655, 1611.891 253.745 C 1616.780 256.147, 1618.655 256.495, 1626.500 256.460 C 1633.691 256.428, 1636.551 255.953, 1640.727 254.097 C 1645.622 251.921, 1654 244.300, 1654 242.022 C 1654 241.460, 1654.429 241, 1654.954 241 C 1655.479 241, 1656.042 244.037, 1656.204 247.750 L 1656.500 254.500 1665.409 254.791 L 1674.318 255.083 1673.662 237.791 C 1673.301 228.281, 1673.005 198.788, 1673.003 172.250 L 1673 124 1663.500 124 L 1654 124 1654 149.500 M 2112.667 124.667 C 2112.300 125.033, 2112 154.508, 2112 190.167 L 2112 255 2122 255 L 2132 255 2132.006 226.750 C 2132.009 210.911, 2132.453 196.911, 2133.016 194.882 C 2135.714 185.171, 2143.420 179.602, 2153.263 180.250 C 2160.137 180.703, 2163.459 182.840, 2167 189.089 C 2169.495 193.491, 2169.501 193.564, 2169.815 224.250 L 2170.130 255 2180.065 255 L 2190 255 2190 225.636 C 2190 194.653, 2189.434 188.811, 2185.623 180.487 C 2180.700 169.735, 2173.004 164.770, 2160.345 164.182 C 2153.123 163.846, 2151.486 164.118, 2146.037 166.564 C 2142.098 168.332, 2138.465 170.937, 2135.942 173.803 L 2132 178.282 2132 151.141 L 2132 124 2122.667 124 C 2117.533 124, 2113.033 124.300, 2112.667 124.667 M 838 131.064 C 833.875 131.572, 829.938 132.201, 829.250 132.462 C 828.269 132.835, 828 145.970, 828 193.500 C 828 250.242, 828.110 254.108, 829.750 254.773 C 830.712 255.163, 840.950 255.487, 852.500 255.491 C 876.695 255.501, 884.264 254.252, 897.500 248.062 C 911.836 241.357, 921.610 230.122, 926.631 214.578 C 928.680 208.235, 929.342 203.815, 929.715 194 C 930.542 172.248, 926.130 158.966, 914.079 146.927 C 902.018 134.877, 889.785 130.932, 863 130.454 C 853.375 130.282, 842.125 130.556, 838 131.064 M 2061.500 143.610 C 2060.950 143.764, 2056.563 145.068, 2051.750 146.506 L 2043 149.121 2043 157.013 L 2043 164.905 2036.750 165.202 L 2030.500 165.500 2030.206 172.750 L 2029.912 180 2036.456 180 L 2043 180 2043.008 204.250 C 2043.019 241.409, 2044.940 248.320, 2057 254.584 C 2060.796 256.556, 2073.257 257.149, 2080.250 255.691 C 2083.771 254.957, 2083.999 254.683, 2083.989 251.205 C 2083.983 249.167, 2083.699 245.813, 2083.358 243.750 L 2082.738 240 2076.504 240 C 2069.048 240, 2065.607 237.848, 2064.040 232.205 C 2063.466 230.137, 2063.009 217.784, 2063.006 204.250 L 2063 180 2074.044 180 L 2085.088 180 2084.794 172.750 L 2084.500 165.500 2073.782 165.216 L 2063.065 164.933 2062.782 154.131 C 2062.610 147.541, 2062.110 143.439, 2061.500 143.610 M 849.250 146.662 C 848.275 147.056, 848 157.386, 848 193.583 L 848 240 858.750 239.985 C 876.425 239.961, 887.578 236.264, 896.306 227.536 C 904.548 219.294, 908.963 206.382, 908.968 190.500 C 908.976 166.709, 898.075 151.341, 878.201 147.124 C 872.984 146.018, 851.690 145.678, 849.250 146.662 M 2253.800 164.080 C 2234.592 166.896, 2220.859 184.054, 2219.298 207.181 C 2217.710 230.732, 2227.551 247.343, 2247.083 254.079 C 2255.170 256.868, 2271.783 257.093, 2282.632 254.559 C 2293.240 252.082, 2293.554 251.719, 2291.817 243.923 C 2290.831 239.497, 2289.961 237.596, 2289.019 237.808 C 2288.266 237.978, 2285.160 238.765, 2282.115 239.558 C 2275.683 241.234, 2261.167 241.452, 2255.775 239.954 C 2247.198 237.572, 2239.976 228.927, 2238.481 219.250 L 2237.824 215 2267.912 215 L 2298 215 2297.988 205.750 C 2297.958 181.970, 2286.869 166.851, 2267.395 164.036 C 2263.603 163.488, 2260.275 163.086, 2260 163.142 C 2259.725 163.198, 2256.935 163.620, 2253.800 164.080 M 982.579 166.051 C 968.961 170.855, 959.333 181.626, 955.359 196.500 C 953.787 202.387, 953.620 217.641, 955.061 223.888 C 961.486 251.758, 992.413 265.371, 1018.303 251.724 C 1032.699 244.135, 1041 228.693, 1041 209.500 C 1041 189.664, 1032.631 174.962, 1017.201 167.691 C 1011.145 164.838, 1009.441 164.507, 999.500 164.248 C 990.398 164.011, 987.478 164.322, 982.579 166.051 M 1250.882 165.381 C 1245.206 167.409, 1240.365 170.764, 1236.551 175.312 L 1233.039 179.500 1233.020 173.832 C 1232.989 164.959, 1233.034 165, 1223.236 165 L 1214.686 165 1215.343 181.660 C 1215.704 190.823, 1216 211.089, 1216 226.696 L 1216 255.072 1225.750 254.786 L 1235.500 254.500 1236 223.834 L 1236.500 193.167 1239.513 188.834 C 1247.393 177.501, 1263.731 177.189, 1270.066 188.250 C 1272.482 192.468, 1272.502 192.736, 1272.803 223.750 L 1273.105 255 1283.103 255 L 1293.100 255 1292.798 221.750 C 1292.503 189.334, 1292.435 188.350, 1290.096 182.538 C 1287.086 175.055, 1279.978 167.862, 1273.368 165.610 C 1267.720 163.685, 1255.962 163.565, 1250.882 165.381 M 1407 165.823 C 1399.964 168.150, 1394.433 171.671, 1389.860 176.734 C 1381.293 186.215, 1377.785 196.171, 1377.838 210.845 C 1377.896 226.709, 1382.281 237.486, 1392.467 246.796 C 1399.057 252.819, 1406.301 255.803, 1416.342 256.632 C 1444.555 258.961, 1464.970 239.174, 1464.970 209.500 C 1464.970 190.161, 1456.238 174.911, 1441 167.637 C 1435.124 164.832, 1433.444 164.509, 1423.500 164.269 C 1414.998 164.063, 1411.251 164.416, 1407 165.823 M 1508.322 165.527 C 1501.101 167.473, 1494.056 170.937, 1494.485 172.331 C 1496.798 179.843, 1498.214 184, 1498.460 184 C 1498.624 184, 1501.330 182.823, 1504.474 181.383 C 1512.665 177.633, 1524.794 176.931, 1531.343 179.828 C 1535.097 181.488, 1536.457 182.790, 1538.008 186.207 C 1539.079 188.568, 1539.966 191.898, 1539.978 193.607 L 1540 196.713 1531.102 197.385 C 1504.201 199.415, 1489.531 209.930, 1488.225 228.116 C 1487.584 237.055, 1489.745 243.374, 1495.267 248.699 C 1502.048 255.240, 1505.189 256.442, 1515.500 256.441 C 1525.894 256.440, 1531.132 254.586, 1537.828 248.537 L 1541.911 244.848 1542.584 249.924 L 1543.258 255 1551.879 255 L 1560.500 255.001 1560.200 225.250 C 1560.035 208.888, 1559.476 193.025, 1558.957 190 C 1556.843 177.672, 1549.439 168.693, 1538.774 165.526 C 1532.323 163.610, 1515.433 163.611, 1508.322 165.527 M 1785.395 166.083 C 1774.174 169.946, 1764.513 179.371, 1759.936 190.919 C 1756.822 198.777, 1756.045 217.201, 1758.474 225.560 C 1760.882 233.841, 1763.479 238.528, 1768.827 244.246 C 1784.008 260.476, 1813.215 261.104, 1829.836 245.557 C 1838.900 237.079, 1844 224.095, 1844 209.500 C 1844 189.958, 1835.332 174.823, 1820.003 167.599 C 1814.164 164.847, 1812.377 164.506, 1802.500 164.258 C 1793.429 164.030, 1790.429 164.350, 1785.395 166.083 M 1908.882 165.381 C 1903.324 167.367, 1898.373 170.747, 1894.649 175.097 L 1891.264 179.052 1890.571 172.026 L 1889.879 165 1881.439 165 L 1873 165 1873 210 L 1873 255 1882.945 255 L 1892.890 255 1893.195 225.250 C 1893.486 196.856, 1893.600 195.313, 1895.691 191.405 C 1901.904 179.796, 1915.622 176.339, 1924.511 184.143 C 1930.391 189.306, 1931 193.254, 1931 226.182 L 1931 255 1941 255 L 1951 255 1951 225.049 C 1951 193.500, 1950.426 187.797, 1946.466 180 C 1941.095 169.426, 1932.087 163.999, 1920 164.054 C 1915.875 164.072, 1910.872 164.670, 1908.882 165.381 M 1061 165.856 C 1061 166.620, 1078.199 225.642, 1084.573 246.750 L 1087.064 255 1096.282 254.996 L 1105.500 254.991 1112.787 231.746 C 1120.726 206.422, 1123.956 194.738, 1123.983 191.250 C 1124.017 186.795, 1125.765 189.128, 1126.966 195.231 C 1128.047 200.725, 1133.954 221.564, 1141.581 246.787 L 1144.087 255.074 1153.249 254.787 L 1162.411 254.500 1176.184 210.500 C 1183.759 186.300, 1189.967 166.146, 1189.979 165.714 C 1189.990 165.281, 1185.641 165.056, 1180.312 165.214 L 1170.625 165.500 1165.296 186 C 1160.745 203.506, 1157.657 216.491, 1154.119 233 C 1153.406 236.326, 1153.280 236.102, 1151.586 228.500 C 1150.234 222.435, 1139.010 182.130, 1134.378 166.711 C 1133.909 165.150, 1132.802 164.959, 1125.724 165.211 L 1117.607 165.500 1109.322 193.500 C 1104.766 208.900, 1100.265 224.875, 1099.321 229 L 1097.605 236.500 1096.206 230 C 1094.389 221.558, 1082.091 169.031, 1081.398 166.750 C 1080.937 165.237, 1079.523 165, 1070.933 165 C 1065.470 165, 1061 165.385, 1061 165.856 M 2253.625 178.469 C 2246.568 180.985, 2240.341 189.013, 2238.671 197.750 L 2238.050 201 2258.525 201 L 2279 201 2278.978 196.750 C 2278.934 188.230, 2273.040 180.216, 2265.219 178.044 C 2260.411 176.709, 2258.352 176.784, 2253.625 178.469 M 991.843 178.919 C 979.965 182.756, 973.171 196.146, 974.255 213.582 C 975.037 226.149, 980.247 236.045, 988.226 240.115 C 993.571 242.842, 1003.563 242.456, 1007.739 239.360 C 1015.754 233.420, 1020.329 222.750, 1020.329 210 C 1020.329 196.861, 1015.221 185.369, 1007.332 180.762 C 1003.686 178.632, 995.678 177.680, 991.843 178.919 M 1415 179.119 C 1409.269 180.839, 1405.321 184.602, 1401.850 191.653 C 1399.034 197.373, 1398.523 199.587, 1398.173 207.585 C 1397.268 228.278, 1406.346 242, 1420.941 242 C 1430.084 242, 1435.902 237.728, 1440.692 227.497 C 1443.263 222.006, 1443.500 220.522, 1443.500 209.899 C 1443.500 198.614, 1443.405 198.112, 1440 191.441 C 1435.692 183.001, 1430.800 179.171, 1423.494 178.516 C 1420.747 178.270, 1416.925 178.542, 1415 179.119 M 1794.994 178.879 C 1789.742 180.593, 1786.278 182.993, 1783.730 186.680 C 1778.470 194.298, 1777.570 197.684, 1777.534 210 C 1777.503 220.550, 1777.732 221.995, 1780.308 227.497 C 1783.652 234.639, 1786.160 237.508, 1791.418 240.203 C 1797.175 243.155, 1806.441 242.426, 1811.418 238.631 C 1819.175 232.714, 1823 223.239, 1823 209.940 C 1823 196.060, 1818.384 185.486, 1810.240 180.714 C 1806.728 178.656, 1798.654 177.684, 1794.994 178.879 M 1625.500 180.061 C 1620.655 181.483, 1615.330 186.623, 1612.331 192.771 C 1609.772 198.019, 1609.536 199.465, 1609.519 210 C 1609.502 219.981, 1609.813 222.192, 1611.870 226.742 C 1620.107 244.964, 1642.615 245.803, 1651.146 228.206 C 1653.156 224.058, 1653.430 221.957, 1653.456 210.500 C 1653.488 195.904, 1652.501 191.779, 1647.653 186.257 C 1642.153 179.993, 1633.744 177.641, 1625.500 180.061 M 1528.066 211.064 C 1520.106 212.122, 1513.211 215.564, 1510.250 219.957 C 1507.562 223.946, 1507.214 231.579, 1509.517 236.033 C 1513.873 244.457, 1528.891 243.861, 1536.375 234.967 C 1539.787 230.911, 1540.465 228.193, 1540.484 218.500 L 1540.500 210.500 1537.500 210.355 C 1535.850 210.275, 1531.605 210.594, 1528.066 211.064 M 510 236.421 C 499.516 238.629, 492.502 240.854, 475 247.522 C 465.925 250.980, 455.836 254.581, 452.579 255.525 C 443.557 258.140, 434.883 257.177, 421.500 252.072 C 383.951 237.749, 374.141 235.328, 358 236.401 C 301.703 240.141, 258.463 281.533, 245.911 343.701 C 243.194 357.155, 242.185 388.419, 243.922 405.277 C 247.025 435.376, 256.492 469.172, 270.481 500.095 C 287.226 537.108, 318.665 579.133, 339.854 592.828 C 350.885 599.956, 355.856 601.422, 369 601.422 C 381.400 601.421, 384.822 600.497, 412.854 589.574 C 425.945 584.473, 434.476 582.857, 448.500 582.824 C 463.524 582.789, 472.895 584.895, 491.355 592.459 C 508.012 599.283, 514.957 600.966, 526.540 600.985 C 549.712 601.023, 566.942 590.224, 588.098 562.403 C 599.078 547.964, 615.419 521.960, 621.971 508.500 C 628.017 496.080, 636 476.486, 636 474.066 C 636 473.578, 633.865 472.145, 631.254 470.881 C 616.592 463.783, 597.511 447.128, 588.647 433.692 C 572.440 409.123, 567.213 375.645, 575.085 346.831 C 577.787 336.943, 585.656 321.044, 592.076 312.500 C 598.619 303.794, 609.809 292.744, 617.308 287.584 C 620.439 285.430, 623 283.230, 623 282.695 C 623 280.964, 611.937 268.142, 606.138 263.153 C 591.342 250.422, 575.207 242.281, 556 237.858 C 544.776 235.273, 519.237 234.475, 510 236.421 M 1579.633 343.553 C 1569.918 345.483, 1563.620 347.671, 1555 352.112 C 1530.883 364.536, 1517.752 385.666, 1517.782 412 C 1517.820 444.048, 1537.274 466.020, 1581.500 483.964 C 1609.975 495.517, 1620.289 502.891, 1626.306 516 C 1627.913 519.500, 1628.386 522.616, 1628.436 530.021 C 1628.495 538.833, 1628.255 540.040, 1625.208 546.229 C 1617.454 561.980, 1601.497 568.876, 1575.563 567.683 C 1557.286 566.843, 1539.018 561.843, 1525.862 554.081 L 1522.285 551.971 1518.081 567.235 C 1515.769 575.631, 1513.657 583.265, 1513.387 584.200 C 1512.269 588.078, 1532.977 596.393, 1551.500 599.504 C 1565.077 601.784, 1590.473 601.827, 1602.500 599.590 C 1624.653 595.471, 1639.967 587.586, 1652.310 573.946 C 1663.666 561.398, 1669.056 546.432, 1669.102 527.321 C 1669.158 504.272, 1661.513 487.815, 1644.328 473.991 C 1633.923 465.620, 1625.090 460.689, 1604.687 451.861 C 1576.770 439.781, 1566.474 432.807, 1561.551 422.642 C 1552.636 404.233, 1561.453 384.881, 1582 377.754 C 1587.703 375.776, 1590.339 375.514, 1603.500 375.615 C 1620.088 375.743, 1631.815 378.073, 1643.284 383.519 C 1646.465 385.030, 1649.288 386.045, 1649.558 385.775 C 1649.828 385.505, 1652.237 378.222, 1654.910 369.590 L 1659.770 353.896 1657.635 352.506 C 1653.768 349.988, 1637.615 345.108, 1627.973 343.544 C 1616.186 341.633, 1589.271 341.637, 1579.633 343.553 M 848.074 461.250 C 827.497 525.188, 809.200 582.121, 807.414 587.770 L 804.169 598.039 825.231 597.770 L 846.293 597.500 857.397 560.751 L 868.500 524.002 909.579 524.001 L 950.657 524 960.479 554.750 C 965.881 571.663, 971.155 588.313, 972.198 591.750 L 974.094 598 995.664 598 C 1015.721 598, 1017.200 597.877, 1016.756 596.250 C 1016.493 595.288, 998.126 538.362, 975.941 469.750 L 935.604 345 910.546 345 L 885.488 345 848.074 461.250 M 1737.250 376.718 L 1719 382.327 1719 399.164 L 1719 416 1705.500 416 L 1692 416 1692 431 L 1692 446 1705.446 446 L 1718.892 446 1719.235 501.750 C 1719.566 555.474, 1719.658 557.784, 1721.765 565.314 C 1727.172 584.640, 1738.284 596.047, 1755.615 600.063 C 1765.192 602.282, 1790.489 601.046, 1798.597 597.963 C 1800.883 597.094, 1801 596.623, 1800.993 588.275 C 1800.989 583.449, 1800.706 576.534, 1800.363 572.908 L 1799.740 566.316 1795.620 567.114 C 1793.354 567.554, 1788.125 567.923, 1784 567.934 C 1772.132 567.969, 1766.417 564.507, 1761.799 554.488 C 1759.507 549.516, 1759.499 549.331, 1759.208 497.750 L 1758.916 446 1780.958 446 L 1803 446 1803 431 L 1803 416 1781 416 L 1759 416 1759 393.500 C 1759 372.717, 1758.866 371.004, 1757.250 371.054 C 1756.287 371.084, 1747.287 373.633, 1737.250 376.718 M 908.643 380 C 908.325 380.825, 905.782 390.725, 902.992 402 C 899.139 417.578, 880.205 480.483, 876.335 490.569 C 875.866 491.793, 880.654 492, 909.393 492 C 927.877 492, 943 491.775, 943 491.501 C 943 491.226, 937.782 474.913, 931.404 455.251 C 925.026 435.588, 917.426 410.275, 914.515 399 C 911.604 387.725, 908.962 379.175, 908.643 380 M 1134 413.545 C 1124.260 415.622, 1114.639 419.688, 1108.229 424.438 C 1102.233 428.880, 1094.645 436.559, 1091.484 441.385 C 1089.813 443.934, 1089.556 444.033, 1088.938 442.360 C 1088.560 441.337, 1087.919 434.988, 1087.515 428.250 L 1086.779 416 1068.738 416 L 1050.696 416 1051.348 426.656 C 1051.707 432.516, 1052 490.116, 1052 554.656 L 1052 672 1072.500 672 L 1093 672 1093.052 623.750 C 1093.101 578.729, 1093.214 575.667, 1094.740 578 C 1098.174 583.252, 1108.732 592.613, 1114.207 595.260 C 1124.189 600.087, 1131.220 601.477, 1145.500 601.449 C 1160.612 601.418, 1170.225 599.222, 1181 593.337 C 1203.145 581.243, 1217.508 560.553, 1223.705 531.822 C 1226.486 518.927, 1226.216 487.636, 1223.220 475.693 C 1213.166 435.618, 1185.431 411.753, 1149.292 412.079 C 1144.456 412.123, 1137.575 412.783, 1134 413.545 M 1345.121 413.127 C 1327.323 416.083, 1313.633 424.863, 1300.194 441.940 L 1298.274 444.380 1297.665 437.940 C 1297.330 434.398, 1296.766 428.012, 1296.411 423.750 L 1295.765 416 1277.773 416 L 1259.781 416 1260.439 419.750 C 1260.801 421.813, 1261.347 479.413, 1261.653 547.750 L 1262.209 672 1282.104 672 L 1302 672 1302.032 623.750 L 1302.063 575.500 1304.209 578.500 C 1315.810 594.719, 1334.989 602.887, 1358.500 601.621 C 1370.903 600.953, 1378.220 599.104, 1388.500 594.038 C 1403.562 586.616, 1415.221 574.918, 1423.420 559 C 1431.761 542.806, 1435.070 527.348, 1435.099 504.446 C 1435.138 472.930, 1426.753 449.872, 1408.846 432.257 C 1398.401 421.983, 1388.054 416.177, 1375.412 413.499 C 1367.852 411.898, 1353.579 411.722, 1345.121 413.127 M 1897.607 413.605 C 1874.155 417.840, 1855.404 430.063, 1842.419 449.579 C 1830.250 467.867, 1825.049 488.793, 1826.303 514.415 C 1827.645 541.824, 1837.089 563.468, 1855.098 580.411 C 1864.351 589.115, 1876.307 595.631, 1889.500 599.160 C 1900.177 602.016, 1925.867 602.307, 1936.353 599.691 C 1970.037 591.287, 1993.416 566.867, 2001.640 531.500 C 2004.498 519.208, 2004.264 489.754, 2001.211 477.623 C 1994.090 449.326, 1975.786 427.619, 1950.978 418.052 C 1935.887 412.232, 1914.894 410.483, 1897.607 413.605 M 2113.105 413.583 C 2098.444 417.525, 2087.244 427.514, 2078.705 444.265 L 2075.526 450.500 2074.880 444 C 2074.525 440.425, 2074.181 432.663, 2074.117 426.750 L 2074 416 2055.950 416 L 2037.901 416 2038.700 422.250 C 2039.140 425.688, 2039.469 466.637, 2039.431 513.250 L 2039.363 598 2059.681 598 L 2080 598 2080.017 545.750 C 2080.036 488.357, 2080.318 484.935, 2085.978 473.408 C 2094.081 456.906, 2108.986 448.794, 2128.250 450.401 L 2136 451.047 2136 432.130 C 2136 415.804, 2135.783 413.131, 2134.418 412.607 C 2131.559 411.510, 2118.607 412.103, 2113.105 413.583 M 2223.075 413.030 C 2191.586 419.616, 2167.364 444.156, 2158.385 478.571 C 2155.193 490.806, 2154.035 513.963, 2155.957 527.143 C 2158.404 543.929, 2165.179 560.037, 2174.691 571.683 C 2182.886 581.718, 2198.540 592.208, 2211.500 596.349 C 2229.458 602.088, 2258.802 602.545, 2282.500 597.456 C 2291.652 595.491, 2305.115 590.864, 2305.636 589.505 C 2306.045 588.440, 2300.652 563.319, 2299.840 562.507 C 2299.606 562.273, 2296.059 563.140, 2291.957 564.435 C 2266.781 572.381, 2235.797 571.887, 2219.675 563.281 C 2212.510 559.456, 2203.061 549.723, 2199.668 542.674 C 2196.755 536.622, 2194.047 525.876, 2194.017 520.250 L 2194 517 2254.375 517 L 2314.750 517 2315.375 513.875 C 2316.744 507.029, 2315.988 483.571, 2314.106 474.500 C 2307.867 444.428, 2291.781 424.283, 2267.118 415.656 C 2259.172 412.877, 2257.291 412.621, 2243 412.373 C 2234.475 412.225, 2225.509 412.521, 2223.075 413.030 M 2226.500 441.339 C 2211.603 446.298, 2200.196 459.631, 2195.533 477.533 C 2194.690 480.771, 2194 484.456, 2194 485.721 L 2194 488.022 2235.750 487.761 L 2277.500 487.500 2277.800 484.427 C 2278.236 479.961, 2275.463 467.691, 2272.607 461.454 C 2269.328 454.291, 2262.011 446.642, 2255.296 443.356 C 2250.777 441.146, 2248.184 440.630, 2240.171 440.348 C 2233.915 440.128, 2229.087 440.478, 2226.500 441.339 M 1902.500 443.348 C 1895.573 445.638, 1890.653 448.681, 1885.810 453.669 C 1875.742 464.039, 1870.024 477.685, 1867.923 496.362 C 1864.280 528.737, 1876.732 558.954, 1897.782 568.820 C 1902.900 571.219, 1904.657 571.500, 1914.521 571.500 C 1924.951 571.500, 1925.899 571.324, 1932.193 568.226 C 1950.304 559.310, 1962 535.089, 1962 506.500 C 1962 478.062, 1950.813 454.449, 1933.243 445.799 C 1927.275 442.861, 1925.616 442.511, 1916.558 442.281 C 1910.228 442.120, 1905.017 442.516, 1902.500 443.348 M 1129.317 445.046 C 1117.856 447.311, 1104.756 457.546, 1099.275 468.517 C 1093.694 479.686, 1092.791 486.105, 1093.201 511.649 C 1093.533 532.269, 1093.786 535.086, 1095.794 540.500 C 1102.228 557.851, 1115.788 568.357, 1133.500 569.712 C 1157.111 571.520, 1174.889 557.125, 1182.175 530.300 C 1185.019 519.829, 1185.281 495.064, 1182.660 484.528 C 1175.553 455.958, 1154.172 440.133, 1129.317 445.046 M 1337.500 445.386 C 1320.353 449.556, 1307.392 463.993, 1303.544 483.208 C 1301.744 492.193, 1301.432 521.762, 1303.029 532 C 1305.036 544.871, 1313.755 558.257, 1324.068 564.299 C 1335.828 571.190, 1352.833 571.747, 1366 565.674 C 1376.778 560.702, 1387.178 546.233, 1391.642 530 C 1394.228 520.597, 1394.239 492.197, 1391.660 483 C 1385.875 462.366, 1373.050 448.664, 1356.201 445.116 C 1349.619 443.730, 1343.975 443.811, 1337.500 445.386" stroke="none" fill="#040404" fill-rule="evenodd"/></svg>