<svg xmlns="http://www.w3.org/2000/svg" width="1024" height="302" viewBox="0 0 1024 302" version="1.1"><path d="M 332.654 52.144 C 319.447 54.100, 310.807 67.621, 313.908 81.479 C 317.926 99.433, 340.633 106.384, 353.828 93.699 C 358.087 89.605, 360 85.012, 360 78.878 L 360 74 348.500 74 L 337 74 337 77 L 337 80 345 80 C 353.813 80, 354.350 80.490, 351.524 85.953 C 349.272 90.308, 343.713 93.266, 337.616 93.354 C 318.959 93.624, 313.371 67.640, 330.421 59.896 C 335.944 57.388, 339.744 57.536, 345.572 60.486 L 350.482 62.972 352.869 60.585 L 355.256 58.198 351.272 55.562 C 346.582 52.457, 339.418 51.143, 332.654 52.144 M 537.500 52.032 C 526.303 53.685, 517.993 63.568, 518.006 75.218 C 518.014 82.747, 519.462 87.012, 523.690 91.951 C 528.474 97.540, 533.838 99.950, 541.554 99.978 C 557.363 100.035, 568.291 86.355, 565.021 70.601 C 562.339 57.682, 551.010 50.038, 537.500 52.032 M 368 75.500 L 368 99 381.500 99 L 395 99 395 96.035 L 395 93.070 384.750 92.785 L 374.500 92.500 374.500 86 L 374.500 79.500 383.750 79.212 L 393 78.925 393 76 L 393 73.075 383.750 72.788 L 374.500 72.500 374.500 66 L 374.500 59.500 384.750 59.215 L 395 58.930 395 55.465 L 395 52 381.500 52 L 368 52 368 75.500 M 400 55.475 L 400 59 406.500 59 L 413 59 413 79 L 413 99 416.500 99 L 420 99 420 79 L 420 59 426.563 59 L 433.127 59 432.813 55.750 L 432.500 52.500 416.250 52.225 L 400 51.950 400 55.475 M 454 75.500 L 454 99 457.500 99 L 461 99 461 75.500 L 461 52 457.500 52 L 454 52 454 75.500 M 467.691 52.642 C 467.311 53.022, 467 54.608, 467 56.167 C 467 58.987, 467.029 59, 473.500 59 L 480 59 480 79 L 480 99 483.500 99 L 487 99 487 79 L 487 59 493.563 59 L 500.127 59 499.813 55.750 L 499.500 52.500 483.941 52.226 C 475.384 52.075, 468.071 52.262, 467.691 52.642 M 573 75.500 L 573 99 576.476 99 L 579.953 99 580.226 81.827 L 580.500 64.655 591 81.782 L 601.500 98.909 605.250 98.954 L 609 99 609 75.500 L 609 52 605.524 52 L 602.047 52 601.774 68.930 L 601.500 85.861 592.095 70.680 C 580.566 52.073, 580.505 52, 576.345 52 L 573 52 573 75.500 M 534.223 60.119 C 526.307 64.037, 522.700 74.688, 526.377 83.282 C 531.596 95.479, 548.364 97.178, 555.399 86.222 C 561.653 76.482, 558.527 64.415, 548.579 59.896 C 543.239 57.471, 539.453 57.530, 534.223 60.119 M 349.112 131.581 C 336.745 134.906, 324.298 144.445, 318.120 155.333 C 309.247 170.966, 309.921 191.317, 319.816 206.572 C 338.861 235.934, 383.891 237.413, 401.804 209.266 C 406.733 201.521, 409.814 187.916, 408.549 179.481 L 407.872 174.963 385.186 175.231 L 362.500 175.500 362.204 182.250 L 361.909 189 378.534 189 L 395.159 189 394.478 192.250 C 392.587 201.279, 386.996 208.299, 377.795 213.202 C 374.107 215.167, 372.017 215.491, 363 215.495 C 353.768 215.499, 351.836 215.186, 347 212.903 C 339.531 209.376, 333.437 203.142, 329.655 195.159 C 326.833 189.202, 326.502 187.551, 326.523 179.500 C 326.543 171.907, 326.959 169.613, 329.184 164.825 C 332.867 156.898, 339.015 150.610, 346.856 146.750 C 352.739 143.854, 354.386 143.500, 361.979 143.500 C 371.168 143.500, 376.880 145.178, 382.683 149.583 C 384.434 150.913, 386.253 152, 386.725 152 C 387.197 152, 389.511 150.036, 391.867 147.635 L 396.151 143.270 392.326 140.101 C 387.722 136.287, 379.879 132.442, 373.888 131.061 C 367.656 129.624, 355.435 129.880, 349.112 131.581 M 627 180.500 L 627 228 634 228 L 641 228 641 180.500 L 641 133 634 133 L 627 133 627 180.500 M 739 180.500 L 739 228 745.500 228 L 752 228 752 210.113 L 752 192.227 765.750 191.828 C 777.911 191.474, 780.141 191.132, 785.046 188.863 C 795.951 183.819, 801.731 176.054, 802.723 165.118 C 803.983 151.218, 795.921 139.218, 782.547 135.087 C 776.733 133.291, 773.221 133, 757.395 133 L 739 133 739 180.500 M 811 180.500 L 811 228 818 228 L 825 228 825 180.500 L 825 133 818 133 L 811 133 811 180.500 M 752 162.423 L 752 179 763.750 178.978 C 777.312 178.953, 782.141 177.416, 786.099 171.867 C 789.344 167.317, 789.523 157.517, 786.438 153.385 C 781.769 147.131, 780.013 146.528, 765.431 146.173 L 752 145.845 752 162.423 M 441.305 166.105 C 426.824 167.953, 415.639 179.861, 414.277 194.881 C 412.945 209.574, 422.676 224.206, 436.441 228.205 C 438.673 228.854, 443.543 229.357, 447.262 229.323 C 464.619 229.167, 478 215.314, 478 197.500 C 478 177.397, 461.752 163.496, 441.305 166.105 M 511.115 166.230 C 495.785 168.486, 485 181.400, 485 197.500 C 485 215.314, 498.381 229.167, 515.738 229.323 C 519.457 229.357, 524.327 228.854, 526.559 228.205 C 544.624 222.957, 553.918 201.442, 545.737 183.809 C 539.698 170.791, 526.310 163.994, 511.115 166.230 M 581.732 166.127 C 571.278 167.689, 563.090 174.194, 558.240 184.788 C 553.329 195.514, 555.388 209.615, 563.153 218.436 C 573.368 230.042, 588.460 232.928, 599.556 225.398 C 601.499 224.079, 603.357 223, 603.684 223 C 604.881 223, 603.087 234.157, 601.319 237.712 C 598.730 242.918, 595.044 245.249, 588.547 245.788 C 581.609 246.363, 578.082 244.941, 573.288 239.634 C 569.260 235.175, 569.133 235.157, 562.422 238.033 C 557.957 239.948, 557.937 239.978, 559.364 242.730 C 561.833 247.491, 568.139 253.173, 573.933 255.857 C 578.403 257.926, 580.978 258.425, 587 258.386 C 602.866 258.285, 612.934 249.627, 615.911 233.526 C 616.543 230.105, 617 214.914, 617 197.316 L 617 167 610.500 167 C 604.233 167, 604 167.090, 604 169.500 C 604 172.585, 603.842 172.586, 599.195 169.510 C 594.569 166.449, 588.039 165.184, 581.732 166.127 M 673.479 166.083 C 663.780 167.324, 655.201 174.008, 650.637 183.878 C 647.579 190.492, 647.668 204.575, 650.809 211.031 C 655.688 221.056, 663.563 227.063, 674.472 229.080 C 680.594 230.211, 689.049 229.030, 694.364 226.301 C 697.561 224.660, 706 217.172, 706 215.977 C 706 215.554, 703.724 213.748, 700.943 211.963 L 695.886 208.718 692.693 211.798 C 688.738 215.612, 685.183 217, 679.369 217 C 674.510 217, 671.824 215.952, 668.158 212.625 C 662.703 207.675, 662.396 207.929, 685.279 198.440 C 696.951 193.600, 706.646 189.538, 706.823 189.414 C 707.001 189.289, 705.927 186.608, 704.436 183.455 C 698.241 170.362, 687.434 164.297, 673.479 166.083 M 853.297 165.999 C 846.157 167.495, 839 172.166, 836.530 176.941 L 835.063 179.780 841.080 182.030 L 847.098 184.280 850.027 181.474 C 852.315 179.282, 854.162 178.568, 858.473 178.211 C 861.690 177.944, 865.251 178.276, 867.015 179.006 C 870.941 180.632, 875 185.498, 875 188.577 C 875 191.439, 875.195 191.397, 870.654 189.500 C 866.128 187.609, 855.756 187.567, 849.614 189.416 C 824.489 196.977, 829.953 229.125, 856.362 229.125 C 863.640 229.125, 869.457 226.777, 872.842 222.474 L 874.873 219.892 875.186 223.696 L 875.500 227.500 882 227.500 L 888.500 227.500 888.500 206 C 888.500 185.511, 888.391 184.278, 886.172 179.773 C 882.079 171.463, 874.192 166.543, 863.500 165.631 C 860.200 165.349, 855.608 165.515, 853.297 165.999 M 891.367 170.250 C 892.134 172.037, 897.778 184.919, 903.908 198.875 C 911.280 215.655, 914.845 224.912, 914.435 226.206 C 914.093 227.281, 910.931 234.481, 907.407 242.204 C 903.883 249.927, 901 256.436, 901 256.667 C 901 256.898, 904.221 256.955, 908.157 256.794 L 915.315 256.500 934.654 212 C 945.290 187.525, 953.994 167.369, 953.996 167.208 C 953.998 167.047, 950.566 167.047, 946.370 167.208 L 938.739 167.500 930.728 187.750 C 926.322 198.887, 922.443 207.998, 922.109 207.996 C 921.774 207.994, 917.735 198.769, 913.133 187.496 L 904.766 167 897.369 167 L 889.973 167 891.367 170.250 M 438.500 179.665 C 431.531 183.348, 428.044 189.295, 428.044 197.500 C 428.044 207.863, 434.675 215.878, 443.988 216.773 C 450.669 217.415, 453.369 216.565, 458.033 212.351 C 471.193 200.462, 463.129 177.878, 445.782 178.040 C 443.427 178.062, 440.150 178.793, 438.500 179.665 M 509.481 179.394 C 507.821 180.117, 505.065 182.301, 503.357 184.246 C 496.276 192.311, 497.012 205.165, 504.967 212.351 C 509.631 216.565, 512.331 217.415, 519.012 216.773 C 528.234 215.887, 534.931 207.893, 534.978 197.718 C 535.001 192.624, 533.019 186.784, 530.212 183.680 C 525.584 178.562, 515.958 176.572, 509.481 179.394 M 578.337 180.514 C 573.455 183.440, 569 191.330, 569 197.047 C 569 208.607, 576.912 217, 587.810 217 C 597.512 217, 604.390 208.912, 604.462 197.422 C 604.556 182.363, 590.466 173.244, 578.337 180.514 M 671.180 179.682 C 666.477 181.999, 662.845 187.191, 662.254 192.443 L 661.754 196.873 676.338 190.798 C 689.445 185.338, 690.821 184.535, 689.931 182.872 C 687.445 178.227, 677.549 176.543, 671.180 179.682 M 853.378 200.437 C 846.662 203.360, 845.206 209.360, 850.040 214.194 C 852.885 217.038, 853.466 217.207, 859.054 216.802 C 865.672 216.324, 869.100 214.374, 872.750 209.010 C 875.954 204.302, 875.651 202.170, 871.532 200.449 C 867.206 198.641, 857.519 198.635, 853.378 200.437" stroke="none" fill="#ffffff" fill-rule="evenodd"/><path d="M 25.969 1.534 C 15.350 4.812, 4.566 15.807, 1.447 26.534 C 0.172 30.921, 0.005 48.429, 0.234 154.060 L 0.500 276.500 3.440 282.487 C 6.952 289.642, 13.790 296.759, 20.066 299.793 L 24.631 302 512.661 302 L 1000.690 302 1006.797 298.053 C 1013.540 293.694, 1019.106 286.893, 1021.569 280 C 1022.454 277.525, 1023.587 274.719, 1024.089 273.764 C 1025.289 271.477, 1025.309 28.691, 1024.110 29.432 C 1023.620 29.735, 1022.935 28.465, 1022.587 26.611 C 1021.702 21.892, 1015.092 12.033, 1010.235 8.186 C 1007.993 6.411, 1003.986 3.955, 1001.330 2.729 L 996.500 0.500 513.500 0.318 C 102.130 0.162, 29.828 0.343, 25.969 1.534 M 30.734 7.085 C 21.335 9.307, 11.884 17.540, 8.417 26.528 C 6.565 31.330, 6.500 35.632, 6.500 152.500 L 6.500 273.500 9.300 279.203 C 12.814 286.358, 20.348 293.262, 27.280 295.680 C 32.300 297.430, 50.840 297.500, 512 297.500 C 973.160 297.500, 991.700 297.430, 996.720 295.680 C 1003.652 293.262, 1011.186 286.358, 1014.700 279.203 L 1017.500 273.500 1017.500 152 L 1017.500 30.500 1015.321 25.783 C 1012.260 19.157, 1004.897 11.654, 998.714 8.858 L 993.500 6.500 514 6.348 C 236.825 6.260, 32.911 6.571, 30.734 7.085 M 0.484 152 C 0.484 219.375, 0.604 246.938, 0.750 213.250 C 0.896 179.563, 0.896 124.438, 0.750 90.750 C 0.604 57.063, 0.484 84.625, 0.484 152 M 395.150 55.215 L 395 58.930 384.750 59.254 L 374.500 59.578 384.781 59.789 C 395.979 60.019, 396.535 59.742, 395.724 54.334 C 395.364 51.928, 395.277 52.061, 395.150 55.215 M 572.231 75.750 L 572 100 576.250 99.832 L 580.500 99.664 576.768 99.273 L 573.036 98.881 572.749 75.191 L 572.462 51.500 572.231 75.750 M 461.230 75.690 L 461 98.879 457.250 99.272 L 453.500 99.664 457.281 99.832 C 459.555 99.933, 461.257 99.493, 461.551 98.727 C 461.820 98.027, 461.909 87.340, 461.750 74.977 L 461.460 52.500 461.230 75.690 M 609.230 75.690 L 609 98.879 605.250 99.272 L 601.500 99.664 605.281 99.832 C 607.555 99.933, 609.257 99.493, 609.551 98.727 C 609.820 98.027, 609.909 87.340, 609.750 74.977 L 609.460 52.500 609.230 75.690 M 405.729 59.740 L 411.958 60.094 412.229 79.797 L 412.500 99.500 416.500 99.619 L 420.500 99.738 416.750 99.309 L 413 98.879 413 78.940 L 413 59 406.250 59.193 L 399.500 59.385 405.729 59.740 M 422.728 59.722 C 424.503 59.943, 427.653 59.946, 429.728 59.730 C 431.802 59.513, 430.350 59.333, 426.500 59.328 C 422.650 59.324, 420.952 59.501, 422.728 59.722 M 469.728 59.722 C 471.503 59.943, 474.653 59.946, 476.728 59.730 C 478.802 59.513, 477.350 59.333, 473.500 59.328 C 469.650 59.324, 467.952 59.501, 469.728 59.722 M 487 78.940 L 487 98.879 483.491 99.294 L 479.983 99.710 483.741 99.605 L 487.500 99.500 487.771 79.797 L 488.042 60.094 494.271 59.740 L 500.500 59.385 493.750 59.193 L 487 59 487 78.940 M 383.750 72.745 L 393 73.075 393 76 L 393 78.925 383.750 79.275 L 374.500 79.626 384 79.563 L 393.500 79.500 393.810 75.750 L 394.121 72 384.310 72.208 L 374.500 72.415 383.750 72.745 M 336.697 73.637 C 336.314 74.020, 336 75.833, 336 77.667 L 336 81 344.750 80.796 L 353.500 80.593 345.250 80.256 L 337 79.919 337 76.960 L 337 74 348.443 74 L 359.885 74 360.291 78.007 L 360.696 82.015 360.598 77.757 L 360.500 73.500 348.947 73.220 C 342.592 73.066, 337.080 73.253, 336.697 73.637 M 384.750 92.746 L 395 93.070 395 96.008 L 395 98.945 380.750 99.252 L 366.500 99.559 381.250 99.780 L 396 100 396 96 L 396 92 385.250 92.211 L 374.500 92.422 384.750 92.746 M 359.768 129.725 C 361.565 129.947, 364.265 129.943, 365.768 129.715 C 367.271 129.486, 365.800 129.304, 362.500 129.310 C 359.200 129.315, 357.971 129.502, 359.768 129.725 M 626.462 180.500 C 626.463 206.900, 626.592 217.556, 626.749 204.181 C 626.907 190.805, 626.907 169.205, 626.749 156.181 C 626.591 143.156, 626.462 154.100, 626.462 180.500 M 825.462 180.500 C 825.463 206.900, 825.592 217.556, 825.749 204.181 C 825.907 190.805, 825.907 169.205, 825.749 156.181 C 825.591 143.156, 825.462 154.100, 825.462 180.500 M 394.286 141.715 C 395.906 143.335, 395.738 143.709, 391.251 148.465 L 386.500 153.500 391.730 148.557 C 396.647 143.910, 396.863 143.506, 395.325 141.807 C 394.426 140.813, 393.438 140, 393.131 140 C 392.823 140, 393.343 140.772, 394.286 141.715 M 359.768 143.725 C 361.565 143.947, 364.265 143.943, 365.768 143.715 C 367.271 143.486, 365.800 143.304, 362.500 143.310 C 359.200 143.315, 357.971 143.502, 359.768 143.725 M 752.223 162.250 L 752 179 764.250 178.785 L 776.500 178.570 764.775 178.253 L 753.049 177.937 752.748 161.718 L 752.447 145.500 752.223 162.250 M 311.328 179.500 C 311.333 183.350, 311.513 184.802, 311.730 182.728 C 311.946 180.653, 311.943 177.503, 311.722 175.728 C 311.501 173.952, 311.324 175.650, 311.328 179.500 M 326.310 179.500 C 326.315 182.800, 326.502 184.029, 326.725 182.232 C 326.947 180.435, 326.943 177.735, 326.715 176.232 C 326.486 174.729, 326.304 176.200, 326.310 179.500 M 752.415 210 C 752.415 220.175, 752.564 224.338, 752.745 219.250 C 752.927 214.162, 752.927 205.837, 752.745 200.750 C 752.564 195.662, 752.415 199.825, 752.415 210" stroke="none" fill="#6f6f6c" fill-rule="evenodd"/><path d="M 117.224 192.325 C 95.101 214.530, 77 233.464, 77 234.402 C 77 236.846, 81.218 242.710, 84.967 245.475 C 89.726 248.987, 96.744 250.415, 102.130 248.968 C 105.347 248.103, 196.039 196.924, 198.957 194.326 C 199.208 194.103, 189.971 184.477, 178.430 172.936 L 157.447 151.953 117.224 192.325" stroke="none" fill="#eb3131" fill-rule="evenodd"/><path d="M 367.430 76 C 367.430 88.925, 367.573 94.213, 367.747 87.750 C 367.921 81.287, 367.921 70.712, 367.747 64.250 C 367.573 57.787, 367.430 63.075, 367.430 76 M 374.320 66 C 374.320 69.575, 374.502 71.037, 374.723 69.250 C 374.945 67.463, 374.945 64.537, 374.723 62.750 C 374.502 60.962, 374.320 62.425, 374.320 66 M 374.320 86 C 374.320 89.575, 374.502 91.037, 374.723 89.250 C 374.945 87.463, 374.945 84.537, 374.723 82.750 C 374.502 80.963, 374.320 82.425, 374.320 86 M 177.997 131.503 L 157.512 152.006 178.506 172.988 L 199.500 193.970 221.500 181.150 C 240.909 169.839, 243.822 167.809, 246.237 163.914 C 251.613 155.242, 250.793 144.855, 244.181 137.905 C 240.715 134.262, 202.193 111, 199.625 111 C 198.996 111, 189.264 120.226, 177.997 131.503 M 738.462 180 C 738.462 206.125, 738.591 216.813, 738.749 203.750 C 738.907 190.688, 738.907 169.313, 738.749 156.250 C 738.591 143.188, 738.462 153.875, 738.462 180" stroke="none" fill="#f6b60b" fill-rule="evenodd"/><path d="M 76 152 L 76 233.497 116.748 192.748 L 157.497 152 116.748 111.252 L 76 70.503 76 152" stroke="none" fill="#5778c5" fill-rule="evenodd"/><path d="M 92.502 55.136 C 90.303 55.651, 86.895 57.187, 84.928 58.550 C 80.791 61.417, 76.614 68.211, 77.424 70.754 C 77.731 71.714, 95.876 90.388, 117.747 112.252 L 157.514 152.004 178.389 131.112 C 199.201 110.282, 199.256 110.214, 196.882 108.721 C 195.572 107.897, 174.639 95.711, 150.364 81.642 C 112.387 59.631, 100.637 53.572, 97 54.125 C 96.725 54.167, 94.701 54.622, 92.502 55.136" stroke="none" fill="#3bad49" fill-rule="evenodd"/><path d="M 30.734 7.085 C 21.335 9.307, 11.884 17.540, 8.417 26.528 C 6.565 31.330, 6.500 35.632, 6.500 152.500 L 6.500 273.500 9.300 279.203 C 12.814 286.358, 20.348 293.262, 27.280 295.680 C 32.300 297.430, 50.840 297.500, 512 297.500 C 973.160 297.500, 991.700 297.430, 996.720 295.680 C 1003.652 293.262, 1011.186 286.358, 1014.700 279.203 L 1017.500 273.500 1017.500 152 L 1017.500 30.500 1015.321 25.783 C 1012.260 19.157, 1004.897 11.654, 998.714 8.858 L 993.500 6.500 514 6.348 C 236.825 6.260, 32.911 6.571, 30.734 7.085 M 329.215 52.257 C 324.585 53.740, 317.050 60.680, 314.878 65.461 C 312.587 70.506, 312.423 80.681, 314.551 85.782 C 316.515 90.492, 321.354 95.564, 326.500 98.308 C 332.142 101.316, 342.894 101.288, 348.653 98.249 C 356.442 94.140, 361.986 84.030, 360.853 76 L 360.500 73.500 348.500 73.500 L 336.500 73.500 336.192 77.210 L 335.884 80.920 344.442 81.210 L 352.999 81.500 351.250 84.929 C 348.389 90.536, 344.822 92.500, 337.500 92.500 C 330.397 92.500, 327.206 90.823, 323.250 85.010 C 320.095 80.374, 320.106 71.622, 323.274 66.922 C 328.784 58.746, 338.912 56.415, 346.514 61.574 L 350.307 64.148 352.903 61.504 L 355.500 58.861 352.215 56.078 C 346.593 51.316, 337.081 49.736, 329.215 52.257 M 530.936 53.750 C 507.634 65.568, 515.914 100.611, 541.973 100.463 C 558.920 100.367, 569.652 84.935, 564.898 67.500 C 563.463 62.238, 554.998 53.905, 549.384 52.229 C 542.682 50.228, 536.949 50.701, 530.936 53.750 M 367 76 L 367 100 381.500 100 L 396 100 396 96 L 396 92 385.500 92 L 375 92 375 86.038 L 375 80.075 384.250 79.788 L 393.500 79.500 393.810 75.750 L 394.121 72 384.560 72 L 375 72 375 66.035 L 375 60.070 385.250 59.785 L 395.500 59.500 395.810 55.750 L 396.121 52 381.560 52 L 367 52 367 76 M 400 56 L 400 60 405.979 60 L 411.958 60 412.229 79.750 L 412.500 99.500 416.250 99.810 L 420 100.121 420 80.060 L 420 60 426.500 60 L 433 60 433 56 L 433 52 416.500 52 L 400 52 400 56 M 454 76 L 454 100.121 457.750 99.810 L 461.500 99.500 461.500 76 L 461.500 52.500 457.750 52.190 L 454 51.879 454 76 M 467 56 L 467 60 473.500 60 L 480 60 480 80.060 L 480 100.121 483.750 99.810 L 487.500 99.500 487.771 79.750 L 488.042 60 494.021 60 L 500 60 500 56 L 500 52 483.500 52 L 467 52 467 56 M 572 75.945 L 572 100 575.976 100 L 579.953 100 580.226 82.756 L 580.500 65.512 591.020 82.506 L 601.540 99.500 605.520 99.500 L 609.500 99.500 609.500 76 L 609.500 52.500 605.774 52.191 L 602.049 51.882 601.774 68.475 L 601.500 85.067 591.390 68.784 L 581.280 52.500 576.640 52.195 L 572 51.890 572 75.945 M 90.759 55.366 C 85.082 57.479, 82.267 59.640, 79.248 64.201 L 76.500 68.354 76.500 151.927 L 76.500 235.500 79.129 239.304 C 84.674 247.328, 93.863 251.189, 102.130 248.968 C 104.533 248.322, 127.200 235.861, 152.500 221.278 C 177.800 206.694, 207.500 189.599, 218.500 183.289 C 242.084 169.759, 244.778 167.796, 247.750 161.980 C 251.887 153.882, 250.045 142.065, 243.741 136.272 C 241.886 134.567, 126.284 67.048, 109.316 57.759 C 103.102 54.357, 95.948 53.435, 90.759 55.366 M 532.952 61.253 C 527.959 64.618, 525.527 69.473, 525.568 75.992 C 525.635 86.666, 531.328 92.500, 541.677 92.500 C 548.351 92.500, 551.458 90.945, 555.438 85.615 C 558.400 81.648, 558.382 70.338, 555.408 66.323 C 549.882 58.865, 539.856 56.601, 532.952 61.253 M 351.411 130.419 C 332.244 134.795, 316.014 151.055, 312.105 169.799 C 308.760 185.841, 314.036 202.876, 326.080 214.920 C 345.617 234.457, 377.689 235.176, 396.549 216.500 C 404.944 208.188, 408.968 197.431, 408.988 183.250 L 409 175 385.500 175 L 362 175 362 182 L 362 189 378.394 189 L 394.787 189 393.837 193.250 C 391.810 202.309, 386.128 208.776, 376.233 213.284 C 368.971 216.593, 355.467 216.385, 347.880 212.849 C 340.283 209.308, 334.971 204.278, 330.899 196.768 C 327.647 190.772, 327.500 190.045, 327.500 180 C 327.500 170.774, 327.815 168.833, 330.097 164 C 333.363 157.084, 339.393 150.858, 346.216 147.357 C 350.417 145.202, 353.279 144.555, 360.177 144.204 C 370.159 143.696, 375.281 145.033, 382.576 150.052 L 387.225 153.251 392.251 148.225 L 397.277 143.200 391.165 138.701 C 380.233 130.653, 364.626 127.401, 351.411 130.419 M 626 180.500 L 626 228 633.500 228 L 641 228 641 180.500 L 641 133 633.500 133 L 626 133 626 180.500 M 738 180.446 L 738 228 745.500 228 L 753 228 753 210.094 L 753 192.188 767.250 191.819 C 780.442 191.478, 781.871 191.251, 786.500 188.761 C 795.734 183.793, 800.108 178.510, 802.475 169.461 C 806.037 155.847, 799.606 142.411, 786.423 135.923 C 781.744 133.620, 780.424 133.485, 759.750 133.196 L 738 132.892 738 180.446 M 811 180.500 L 811 228 818.500 228 L 826 228 826 180.500 L 826 133 818.500 133 L 811 133 811 180.500 M 753 162 L 753 178 765.050 178 C 778.328 178, 780.949 177.226, 785.341 172.006 C 790.385 166.012, 789.998 158.217, 784.344 151.959 C 780.180 147.350, 775.106 146, 761.951 146 L 753 146 753 162 M 436.500 166.332 C 427.417 169.326, 420.838 175.073, 416.845 183.500 C 414.457 188.538, 414.002 190.783, 414.002 197.500 C 414.002 204.217, 414.457 206.462, 416.845 211.500 C 420.069 218.305, 426.027 224.197, 432.878 227.358 C 436.514 229.035, 439.420 229.489, 446.500 229.486 C 454.371 229.482, 456.155 229.138, 460.717 226.741 C 467.662 223.092, 472.700 217.882, 475.852 211.086 C 479.539 203.139, 479.542 191.837, 475.859 184 C 470.557 172.718, 460.274 165.940, 447.555 165.344 C 443.481 165.154, 438.810 165.571, 436.500 166.332 M 507.500 166.339 C 497.874 169.527, 491.236 175.286, 487.141 184 C 483.458 191.837, 483.461 203.139, 487.148 211.086 C 490.300 217.882, 495.338 223.092, 502.283 226.741 C 506.845 229.138, 508.629 229.482, 516.500 229.486 C 527.069 229.491, 532.241 227.585, 539.290 221.087 C 555.866 205.808, 550.935 176.953, 530.176 167.749 C 524.402 165.189, 513.094 164.486, 507.500 166.339 M 577.499 166.388 C 569.027 169.043, 562.928 174.524, 557.901 184 C 555.898 187.777, 555.513 189.946, 555.507 197.500 C 555.501 205.044, 555.897 207.309, 557.957 211.500 C 563.398 222.571, 574.829 230.026, 586.288 229.978 C 591.398 229.957, 599.070 227.314, 600.436 225.104 C 603.035 220.898, 604.064 230.518, 601.636 236.329 C 596.949 247.547, 580.173 249.073, 573.156 238.919 C 571.695 236.805, 570.059 235.059, 569.519 235.038 C 567.470 234.959, 558 239.418, 558 240.462 C 558 243.818, 566.162 252.469, 572.500 255.830 C 576.835 258.129, 578.697 258.483, 586.500 258.491 C 594.386 258.499, 596.220 258.146, 601.318 255.643 C 605.352 253.662, 608.169 251.363, 610.506 248.143 C 616.513 239.867, 617 236.233, 617 199.684 L 617 167 610 167 C 603.136 167, 603 167.050, 603 169.589 L 603 172.178 599.969 169.627 C 594.625 165.131, 585.641 163.836, 577.499 166.388 M 668.332 166.851 C 655.396 171.322, 647.936 182.424, 647.884 197.282 C 647.852 206.413, 650.176 212.867, 655.713 219.026 C 667.343 231.961, 686.374 233.676, 699.874 223.005 C 707.802 216.739, 707.919 215.894, 701.456 211.602 L 695.972 207.961 692.505 211.428 C 689.076 214.857, 683.846 217.004, 679 216.972 C 673.810 216.938, 665 211.242, 665 207.920 C 665 207.570, 674.112 203.542, 685.250 198.969 C 696.388 194.395, 705.907 190.302, 706.404 189.873 C 708.048 188.453, 703.933 180.088, 698.858 174.535 C 690.716 165.626, 679.816 162.883, 668.332 166.851 M 848.935 166.820 C 842.971 169.232, 838.798 172.379, 836.576 176.141 C 834.501 179.653, 834.713 179.927, 841.784 182.879 L 847.069 185.085 849.992 182.162 C 856.537 175.617, 870.643 177.895, 874.017 186.041 C 875.563 189.774, 874.795 190.683, 871.399 189.136 C 862.277 184.980, 846.128 187.872, 839.074 194.926 C 834.408 199.592, 832.611 204.603, 833.244 211.187 C 834.885 228.268, 859.534 236.312, 872.009 223.837 L 875 220.846 875 224.423 L 875 228 882 228 L 889 228 889 207.178 C 889 183.486, 888.222 179.594, 882.256 173.451 C 877.029 168.070, 871.015 165.711, 861.500 165.311 C 855.437 165.056, 852.395 165.421, 848.935 166.820 M 890 167.580 C 890 167.946, 895.470 180.677, 902.155 195.872 C 908.841 211.068, 914.265 224.175, 914.210 225 C 914.155 225.825, 911.161 232.967, 907.555 240.870 C 903.950 248.774, 901 255.636, 901 256.120 C 901 256.604, 904.291 257, 908.313 257 L 915.626 257 934.828 212.750 C 945.390 188.412, 954.024 168.162, 954.015 167.750 C 954.007 167.338, 950.467 167, 946.150 167 L 938.300 167 930.500 187 C 926.210 198, 922.430 206.992, 922.100 206.983 C 921.770 206.973, 917.899 198.086, 913.498 187.233 L 905.497 167.500 897.748 167.208 C 893.487 167.047, 890 167.215, 890 167.580 M 440.500 179.457 C 433.576 181.983, 428.011 190.024, 428.011 197.500 C 428.011 201.843, 430.302 207.329, 433.674 211.061 C 444.709 223.275, 464 214.648, 464 197.500 C 464 184.325, 452.131 175.213, 440.500 179.457 M 511.256 179.117 C 506.873 180.383, 501.337 186.125, 500.058 190.731 C 495.687 206.472, 507.208 219.983, 521.678 216.087 C 528.586 214.227, 534.989 205.285, 534.989 197.500 C 534.989 189.722, 528.659 181.109, 521.477 179.115 C 516.879 177.839, 515.682 177.839, 511.256 179.117 M 581.684 179.449 C 574.110 182.150, 570 188.500, 570 197.500 C 570 217.536, 594.051 224.306, 602.120 206.541 C 605.527 199.042, 603.703 187.537, 598.355 182.788 C 595.981 180.681, 589.689 177.985, 587.282 178.044 C 586.302 178.068, 583.783 178.700, 581.684 179.449 M 672.450 179.352 C 670.773 180.113, 668.198 182.165, 666.727 183.913 C 664.130 186.998, 661.178 194.511, 662.172 195.505 C 663.006 196.340, 690.050 184.649, 689.701 183.604 C 688.313 179.440, 677.911 176.876, 672.450 179.352 M 856.185 199.989 C 846.639 202.249, 844.823 213.136, 853.513 216.004 C 861.092 218.506, 870.463 213.923, 873.723 206.120 C 875.347 202.233, 874.937 201.702, 869 200.009 C 864.996 198.867, 860.952 198.861, 856.185 199.989" stroke="none" fill="#190d0d" fill-rule="evenodd"/></svg>