<svg id="svg" version="1.1" xmlns="http://www.w3.org/2000/svg" xmlns:xlink="http://www.w3.org/1999/xlink" width="400" height="207.14285714285714" viewBox="0, 0, 400,207.14285714285714"><g id="svgg"><path id="path0" d="M186.982 37.044 C 186.664 37.395,186.639 42.679,186.639 108.888 L 186.639 180.352 187.118 180.803 L 187.598 181.253 203.658 181.253 C 218.954 181.253,219.735 181.235,220.061 180.874 C 220.622 180.254,220.586 37.516,220.025 37.008 C 219.409 36.450,187.487 36.485,186.982 37.044 M99.430 47.762 C 97.681 47.986,96.911 48.203,95.495 48.871 C 93.496 49.814,92.085 50.217,89.637 50.545 C 87.068 50.888,85.824 51.343,84.634 52.376 C 83.467 53.387,82.345 53.959,81.098 54.178 C 79.998 54.370,79.196 54.877,77.738 56.301 C 77.029 56.993,75.886 57.810,74.980 58.272 C 73.727 58.911,73.296 59.265,72.708 60.136 C 72.155 60.958,71.690 61.358,70.741 61.831 C 69.642 62.378,69.426 62.593,68.876 63.677 C 68.420 64.578,67.980 65.093,67.219 65.616 C 66.401 66.177,66.010 66.660,65.359 67.912 C 64.870 68.853,64.041 69.999,63.322 70.730 C 61.994 72.081,61.450 72.996,61.222 74.262 C 61.033 75.313,60.147 76.959,59.456 77.542 C 58.691 78.187,58.080 79.791,57.809 81.868 C 57.477 84.413,56.879 86.603,56.043 88.341 C 54.613 91.314,54.407 94.175,54.541 109.186 C 54.657 122.283,54.732 123.117,56.040 125.945 C 56.988 127.996,57.397 129.470,57.791 132.263 C 58.143 134.764,58.552 135.806,59.658 137.027 C 60.602 138.070,60.845 138.594,61.514 141.043 C 61.686 141.671,62.072 142.247,62.766 142.913 C 63.915 144.014,65.124 145.698,65.700 146.999 C 65.955 147.577,66.419 148.116,67.013 148.525 C 68.070 149.252,68.875 150.233,69.214 151.206 C 69.381 151.684,69.670 151.974,70.199 152.192 C 71.297 152.645,72.200 153.388,72.915 154.426 C 73.323 155.020,73.862 155.484,74.440 155.740 C 75.741 156.316,77.425 157.524,78.527 158.673 C 79.193 159.368,79.769 159.753,80.397 159.925 C 82.845 160.595,83.370 160.837,84.412 161.781 C 85.691 162.940,86.670 163.302,89.728 163.749 C 92.418 164.142,93.733 164.520,95.494 165.405 C 98.080 166.705,101.125 166.956,114.345 166.957 C 127.719 166.959,130.269 166.740,133.261 165.333 C 135.338 164.357,136.956 163.936,140.135 163.547 C 141.587 163.369,143.361 162.624,143.923 161.956 C 144.464 161.312,146.708 160.124,147.383 160.124 C 148.116 160.124,149.775 159.173,150.431 158.377 C 151.138 157.520,152.401 156.612,153.995 155.816 C 154.809 155.410,155.306 154.972,155.808 154.221 C 156.332 153.436,156.801 153.034,157.747 152.563 C 158.861 152.009,159.061 151.808,159.611 150.699 C 160.084 149.746,160.479 149.287,161.306 148.731 C 162.186 148.140,162.524 147.727,163.142 146.485 C 163.601 145.566,164.371 144.483,165.091 143.748 C 166.653 142.151,166.954 141.663,167.306 140.157 C 167.642 138.716,168.299 137.502,169.214 136.632 C 169.940 135.942,170.587 134.152,170.792 132.263 C 171.039 129.990,171.549 128.140,172.471 126.174 C 173.895 123.138,174.004 121.769,173.997 107.101 C 173.989 93.475,173.827 90.878,172.870 89.048 C 171.728 86.862,170.689 83.126,170.689 81.202 C 170.689 80.136,169.856 78.320,168.827 77.145 C 168.051 76.258,167.749 75.698,167.464 74.616 C 166.976 72.761,166.467 71.780,165.698 71.212 C 164.909 70.628,163.766 69.057,162.983 67.479 C 162.576 66.658,162.137 66.124,161.581 65.774 C 160.612 65.162,159.694 64.056,159.385 63.130 C 159.213 62.617,158.915 62.338,158.140 61.970 C 156.929 61.394,156.312 60.862,155.645 59.816 C 155.313 59.296,154.738 58.834,153.896 58.409 C 152.250 57.577,150.812 56.532,150.228 55.742 C 149.658 54.970,148.679 54.464,146.803 53.970 C 145.685 53.675,145.170 53.396,144.317 52.620 C 143.076 51.491,141.571 50.868,139.617 50.674 C 137.433 50.457,134.885 49.759,133.026 48.867 C 130.254 47.537,128.833 47.432,114.042 47.460 C 104.966 47.477,101.018 47.558,99.430 47.762 M237.012 72.774 C 236.298 73.533,236.358 91.194,237.085 94.405 C 237.151 94.698,237.552 95.054,238.170 95.369 C 239.330 95.959,239.903 96.543,240.425 97.667 C 240.707 98.275,241.054 98.610,241.740 98.938 C 242.839 99.464,243.422 100.058,243.946 101.188 C 244.219 101.775,244.599 102.154,245.262 102.500 C 248.775 104.333,248.678 110.697,245.119 111.872 C 244.575 112.052,244.318 112.335,243.901 113.217 C 243.365 114.348,242.722 114.955,241.521 115.460 C 241.049 115.658,240.676 116.086,240.213 116.957 C 239.668 117.984,239.388 118.267,238.446 118.744 C 237.830 119.056,237.283 119.354,237.230 119.407 C 236.811 119.826,236.570 124.536,236.566 132.382 L 236.561 140.995 237.056 141.459 L 237.550 141.924 247.672 141.843 C 259.002 141.753,259.116 141.740,259.616 140.493 C 260.042 139.431,260.823 138.644,261.916 138.176 C 262.653 137.860,262.918 137.598,263.241 136.867 C 263.736 135.748,264.356 135.132,265.512 134.609 C 266.160 134.316,266.478 134.008,266.713 133.447 C 268.172 129.953,274.317 129.832,276.056 133.262 C 276.404 133.947,276.771 134.348,277.225 134.538 C 278.297 134.986,279.006 135.655,279.553 136.735 C 279.949 137.515,280.292 137.863,281.048 138.248 C 282.211 138.839,282.783 139.423,283.304 140.549 C 283.871 141.775,284.551 141.846,295.929 141.873 C 305.068 141.894,305.492 141.879,305.834 141.501 C 306.164 141.136,306.185 140.336,306.109 130.885 C 306.019 119.517,306.033 119.638,304.699 118.937 C 303.429 118.269,303.058 117.903,302.592 116.862 C 302.352 116.325,301.937 115.823,301.564 115.619 C 300.099 114.818,299.612 114.376,299.013 113.304 C 298.515 112.411,298.173 112.072,297.410 111.709 C 294.121 110.146,294.327 103.860,297.714 102.445 C 298.276 102.211,298.583 101.893,298.876 101.244 C 299.399 100.089,300.015 99.469,301.134 98.974 C 301.848 98.658,302.130 98.381,302.421 97.705 C 302.894 96.609,303.752 95.749,304.840 95.279 L 305.692 94.912 305.927 93.330 C 306.076 92.332,306.163 88.321,306.163 82.444 L 306.163 73.139 305.709 72.717 C 304.907 71.969,284.452 72.186,283.687 72.950 C 283.628 73.010,283.323 73.563,283.011 74.178 C 282.530 75.128,282.261 75.392,281.235 75.919 C 280.340 76.379,279.950 76.720,279.737 77.228 C 279.225 78.449,278.645 79.066,277.498 79.609 C 276.604 80.032,276.326 80.285,276.143 80.842 C 275.905 81.561,274.923 82.630,274.120 83.041 C 273.867 83.171,272.681 83.271,271.427 83.270 C 268.624 83.265,267.867 82.918,266.907 81.198 C 266.417 80.322,266.061 79.961,265.347 79.621 C 264.269 79.106,263.881 78.714,263.224 77.471 C 262.893 76.846,262.460 76.413,261.835 76.082 C 260.577 75.417,260.179 75.024,259.717 73.992 C 259.026 72.447,257.806 72.294,246.197 72.294 L 237.462 72.294 237.012 72.774 M121.440 89.047 C 122.407 89.363,123.110 89.762,123.718 90.341 C 124.203 90.802,125.391 91.684,126.359 92.302 C 127.945 93.313,128.227 93.595,129.190 95.133 C 129.779 96.072,130.637 97.237,131.098 97.721 C 132.524 99.220,132.819 100.543,132.937 105.978 C 133.085 112.803,132.710 114.785,130.884 116.814 C 130.414 117.336,129.554 118.504,128.972 119.409 C 128.040 120.859,127.712 121.181,126.235 122.102 C 125.312 122.678,124.109 123.545,123.563 124.030 C 120.346 126.885,108.011 126.680,104.559 123.713 C 103.932 123.175,102.731 122.308,101.891 121.787 C 100.999 121.235,100.233 120.590,100.052 120.240 C 99.542 119.255,98.411 117.624,97.663 116.796 C 96.113 115.080,95.731 113.618,95.564 108.752 C 95.349 102.474,95.900 99.459,97.604 97.590 C 98.096 97.050,98.945 95.890,99.490 95.012 C 100.373 93.591,100.681 93.287,102.287 92.254 C 103.279 91.616,104.469 90.747,104.932 90.323 C 106.668 88.731,108.151 88.464,114.863 88.535 C 119.553 88.585,120.173 88.633,121.440 89.047 " stroke="none" fill="#23e1d9" fill-rule="evenodd"></path><path id="path1" d="M0.000 103.573 L 0.000 207.147 200.000 207.147 L 400.000 207.147 400.000 103.573 L 400.000 0.000 200.000 0.000 L 0.000 0.000 0.000 103.573 M221.989 34.716 C 222.308 34.954,222.632 35.373,222.709 35.648 C 223.026 36.784,222.908 181.636,222.589 182.401 C 222.053 183.683,222.781 183.635,203.625 183.635 C 184.711 183.635,185.121 183.659,184.543 182.534 C 184.164 181.797,183.985 37.866,184.361 36.111 C 184.792 34.099,183.623 34.210,203.972 34.249 C 221.311 34.283,221.413 34.285,221.989 34.716 M136.031 45.149 C 139.255 45.416,139.797 45.616,141.145 47.031 L 142.279 48.222 144.726 48.576 C 148.012 49.052,150.388 50.300,150.388 51.549 C 150.388 51.668,150.924 51.920,151.579 52.109 C 154.069 52.827,154.289 53.020,154.874 54.995 C 155.036 55.542,155.177 55.632,156.067 55.759 C 157.877 56.018,158.871 56.750,158.885 57.835 C 158.890 58.213,159.802 59.037,160.216 59.037 C 161.195 59.037,162.397 60.252,162.406 61.253 C 162.410 61.663,163.252 62.558,163.633 62.558 C 164.676 62.558,165.424 63.581,165.678 65.356 C 165.820 66.342,165.828 66.350,166.958 66.719 C 168.164 67.112,168.754 67.652,168.949 68.540 C 169.222 69.784,169.700 71.051,169.897 71.051 C 171.140 71.051,172.389 73.435,172.863 76.714 L 173.217 79.160 174.409 80.295 C 176.482 82.269,176.482 82.265,176.482 107.198 C 176.482 132.120,176.476 132.198,174.344 134.068 L 173.218 135.056 172.972 136.870 C 172.475 140.545,171.845 142.031,170.384 142.980 C 169.646 143.459,169.196 144.301,168.949 145.663 C 168.783 146.581,167.883 147.413,166.848 147.607 C 165.974 147.771,165.891 147.888,165.572 149.424 C 165.274 150.863,165.058 151.158,163.959 151.633 C 162.942 152.072,162.493 152.563,162.307 153.438 C 162.143 154.209,161.231 155.059,160.362 155.250 C 159.650 155.406,159.009 156.058,158.739 156.901 C 158.476 157.725,157.752 158.215,156.431 158.463 C 155.003 158.731,154.986 158.743,154.713 159.829 C 154.437 160.925,153.612 161.702,152.506 161.909 C 151.496 162.098,150.388 162.566,150.388 162.804 C 150.388 163.981,147.634 165.380,144.628 165.730 L 142.413 165.988 141.139 167.273 C 139.081 169.348,137.997 169.435,114.345 169.434 C 90.765 169.432,89.450 169.327,87.424 167.267 C 86.802 166.635,86.103 166.078,85.871 166.030 C 85.638 165.982,84.486 165.798,83.311 165.622 C 80.521 165.203,78.844 164.335,78.303 163.028 C 78.095 162.525,77.834 162.380,76.482 162.012 C 74.632 161.509,74.194 161.138,73.850 159.782 C 73.579 158.714,73.489 158.657,71.644 158.368 C 70.823 158.239,69.808 157.379,69.808 156.812 C 69.808 156.238,68.886 155.406,67.978 155.162 C 67.044 154.910,66.387 154.216,66.177 153.258 C 66.010 152.499,65.450 151.896,64.746 151.720 C 63.972 151.525,63.204 150.643,63.072 149.796 C 62.783 147.950,62.726 147.861,61.658 147.590 C 60.303 147.246,59.898 146.774,59.418 144.977 C 59.193 144.137,58.927 143.419,58.826 143.383 C 57.066 142.753,55.998 140.554,55.594 136.727 C 55.458 135.445,55.400 135.335,54.162 134.017 C 52.106 131.827,52.180 132.636,52.056 111.134 C 51.900 84.316,52.046 82.200,54.176 80.281 L 55.340 79.234 55.712 76.740 C 56.191 73.521,56.977 71.905,58.429 71.149 C 58.779 70.968,59.052 70.566,59.227 69.978 C 59.994 67.403,60.539 66.701,61.773 66.701 C 62.369 66.701,62.767 66.152,62.972 65.044 C 63.226 63.674,63.703 62.974,64.584 62.676 C 65.452 62.383,65.939 61.833,66.368 60.661 C 66.713 59.718,67.567 59.037,68.405 59.037 C 68.811 59.037,69.501 58.251,69.860 57.380 C 70.269 56.385,70.600 56.161,72.106 55.853 C 72.822 55.707,73.473 55.455,73.552 55.293 C 73.631 55.130,73.871 54.535,74.086 53.969 C 74.501 52.878,74.743 52.720,76.799 52.200 C 77.282 52.078,77.768 51.865,77.879 51.727 C 79.807 49.316,80.352 49.050,84.587 48.451 L 86.419 48.192 87.369 47.092 C 88.533 45.744,89.408 45.381,92.001 45.169 C 94.810 44.939,133.284 44.922,136.031 45.149 M261.047 70.205 C 261.469 70.336,261.982 70.651,262.186 70.904 C 262.391 71.157,262.824 71.535,263.148 71.743 C 263.472 71.952,263.891 72.394,264.080 72.725 C 264.268 73.056,264.511 73.328,264.618 73.329 C 264.892 73.330,265.976 74.395,265.977 74.663 C 265.978 74.784,266.261 75.044,266.605 75.240 C 266.949 75.436,267.391 75.874,267.585 76.213 C 267.780 76.552,268.144 76.923,268.393 77.037 C 268.643 77.151,269.058 77.528,269.315 77.876 C 270.031 78.844,273.036 78.856,273.534 77.893 C 273.709 77.555,274.035 77.180,274.258 77.061 C 274.481 76.941,275.203 76.282,275.861 75.596 C 277.165 74.236,277.274 74.128,279.489 71.963 C 281.717 69.785,280.754 69.915,294.666 69.914 C 308.291 69.912,308.005 69.881,308.426 71.397 C 308.734 72.508,308.729 94.891,308.420 96.332 C 308.227 97.234,307.960 97.640,306.681 98.983 C 304.814 100.943,304.440 101.317,302.920 102.738 C 302.254 103.361,301.552 104.122,301.361 104.429 C 301.169 104.735,300.820 105.048,300.584 105.122 C 300.195 105.246,300.155 105.421,300.155 107.006 L 300.155 108.753 302.693 111.325 C 304.089 112.740,305.339 114.006,305.473 114.138 C 305.606 114.270,306.013 114.674,306.378 115.035 C 308.781 117.415,308.637 116.430,308.643 130.606 C 308.648 144.002,308.693 143.612,307.102 144.131 C 305.872 144.533,282.256 144.403,281.512 143.991 C 280.981 143.696,280.248 143.069,279.225 142.034 C 278.906 141.712,278.552 141.355,278.437 141.242 C 277.679 140.492,276.753 139.556,276.608 139.393 C 276.514 139.288,276.157 138.931,275.816 138.601 C 275.474 138.271,275.066 137.875,274.909 137.721 C 272.852 135.707,273.210 135.888,271.281 135.888 C 269.700 135.888,269.512 135.930,269.392 136.308 C 269.319 136.539,269.014 136.888,268.713 137.085 C 268.413 137.281,267.651 137.987,267.020 138.654 C 263.594 142.273,261.726 143.927,260.858 144.111 C 259.043 144.496,235.865 144.308,235.248 143.904 C 234.171 143.198,234.178 143.289,234.193 130.502 C 234.211 116.002,233.907 117.288,238.300 113.102 C 240.348 111.151,241.145 110.333,241.323 109.999 C 241.440 109.781,241.815 109.437,242.156 109.236 C 242.869 108.814,243.163 105.230,242.483 105.230 C 242.323 105.230,241.949 104.927,241.653 104.557 C 241.357 104.187,241.019 103.791,240.903 103.677 C 240.786 103.563,240.377 103.157,239.995 102.774 C 239.612 102.391,239.203 101.988,239.086 101.877 C 238.743 101.552,237.573 100.376,237.423 100.207 C 237.348 100.121,237.007 99.787,236.665 99.466 C 234.052 97.008,234.191 97.913,234.184 83.273 C 234.178 69.741,234.070 70.414,236.313 70.010 C 237.814 69.739,260.116 69.915,261.047 70.205 M111.723 91.507 C 110.722 93.120,109.259 93.868,106.499 94.178 C 105.085 94.336,104.882 94.482,104.596 95.542 C 104.315 96.586,103.523 97.329,102.519 97.489 C 101.619 97.633,101.398 98.031,101.211 99.845 C 100.975 102.125,99.832 104.241,98.679 104.531 C 98.112 104.673,97.986 105.140,97.986 107.095 C 97.986 109.160,98.109 109.524,98.941 109.919 C 100.109 110.473,101.295 112.968,101.295 114.871 C 101.295 116.070,101.610 116.586,102.439 116.742 C 103.530 116.946,104.364 117.740,104.640 118.835 C 104.895 119.849,105.331 120.145,106.569 120.145 C 108.472 120.145,110.967 121.331,111.521 122.498 C 111.908 123.315,112.288 123.453,114.164 123.457 C 115.909 123.460,116.831 123.276,116.831 122.923 C 116.831 121.811,119.322 120.433,121.738 120.207 C 123.354 120.056,123.626 119.865,124.053 118.577 C 124.396 117.543,124.677 117.314,126.574 116.520 C 127.003 116.341,127.102 116.091,127.314 114.656 C 127.737 111.796,128.234 110.810,129.726 109.862 L 130.502 109.368 130.502 107.096 L 130.502 104.825 129.666 104.398 C 128.358 103.731,127.581 102.083,127.270 99.319 C 127.116 97.943,126.912 97.566,126.324 97.566 C 125.247 97.566,123.876 96.202,123.874 95.128 C 123.873 94.549,123.437 94.360,121.408 94.054 C 119.226 93.725,117.682 92.928,117.074 91.818 L 116.592 90.937 114.334 90.937 C 112.094 90.937,112.073 90.942,111.723 91.507 " stroke="none" fill="#042c34" fill-rule="evenodd"></path><path id="path2" d="M186.482 35.421 C 184.814 36.438,184.984 28.106,184.983 108.980 L 184.982 180.778 185.452 181.482 C 186.457 182.985,185.495 182.910,203.597 182.910 L 219.830 182.910 220.635 182.458 C 222.453 181.436,222.269 189.744,222.264 108.945 C 222.259 28.790,222.415 36.473,220.766 35.454 L 220.044 35.008 203.601 35.009 C 187.558 35.009,187.140 35.019,186.482 35.421 M220.635 36.433 L 221.440 37.238 221.440 108.907 L 221.440 180.576 221.007 181.126 C 220.053 182.339,220.806 182.289,203.401 182.289 L 187.413 182.289 186.508 181.384 L 185.603 180.479 185.603 109.080 C 185.603 45.024,185.636 37.616,185.924 37.060 C 186.705 35.550,185.698 35.631,203.701 35.630 L 219.831 35.629 220.635 36.433 M100.880 45.777 C 94.598 46.014,91.539 46.576,90.147 47.747 C 89.382 48.391,88.879 48.578,86.218 49.206 C 83.507 49.847,82.508 50.285,81.580 51.241 C 81.129 51.706,80.396 52.151,79.673 52.400 C 77.864 53.022,76.050 54.067,75.551 54.773 C 74.947 55.627,74.483 56.000,73.081 56.756 C 72.432 57.106,71.686 57.680,71.424 58.032 C 70.781 58.894,69.567 60.073,69.321 60.073 C 68.853 60.073,67.737 61.177,67.143 62.230 C 66.790 62.856,66.290 63.477,66.031 63.610 C 65.180 64.048,64.397 64.925,63.875 66.023 C 63.586 66.632,62.926 67.493,62.366 67.991 C 61.092 69.123,60.459 70.114,59.647 72.252 C 59.248 73.301,58.812 74.089,58.528 74.275 C 57.785 74.762,57.015 76.414,56.457 78.717 C 55.749 81.640,55.534 82.246,54.960 82.935 C 53.158 85.098,52.829 88.834,52.828 107.198 C 52.826 125.382,53.136 128.913,54.954 131.383 C 55.588 132.245,55.829 132.890,56.330 135.077 C 56.955 137.799,57.492 139.049,58.399 139.887 C 58.929 140.378,59.326 141.007,59.563 141.730 C 60.219 143.732,61.056 145.141,62.123 146.041 C 62.777 146.592,63.415 147.412,63.883 148.302 C 64.421 149.326,64.909 149.917,65.711 150.515 C 66.312 150.963,66.963 151.665,67.155 152.073 C 67.575 152.962,68.501 153.875,69.431 154.314 C 69.804 154.491,70.480 155.133,70.934 155.741 C 71.521 156.529,72.107 157.023,72.967 157.457 C 73.632 157.793,74.712 158.612,75.367 159.278 C 76.599 160.529,77.814 161.256,79.710 161.876 C 80.433 162.113,81.061 162.510,81.552 163.041 C 82.417 163.976,83.586 164.462,86.761 165.209 C 88.310 165.573,89.230 165.914,89.842 166.352 C 92.728 168.413,96.278 168.701,116.961 168.555 C 133.738 168.437,136.017 168.234,138.179 166.661 C 139.197 165.920,139.633 165.755,142.384 165.072 C 145.186 164.376,145.774 164.113,147.074 162.975 C 147.633 162.486,148.547 161.974,149.357 161.696 C 150.743 161.221,153.081 159.861,153.081 159.530 C 153.081 159.163,154.439 158.029,155.458 157.545 C 156.519 157.041,157.396 156.251,157.829 155.408 C 157.962 155.150,158.567 154.659,159.172 154.317 C 160.443 153.600,160.720 153.322,161.427 152.046 C 161.711 151.533,162.350 150.827,162.847 150.476 C 163.343 150.126,163.936 149.544,164.164 149.184 C 164.392 148.824,164.890 148.030,165.272 147.420 C 165.654 146.809,166.213 146.164,166.515 145.984 C 167.213 145.570,168.248 143.858,168.917 142.011 C 169.253 141.082,169.724 140.275,170.246 139.732 C 171.325 138.610,171.398 138.443,172.245 135.137 C 172.801 132.971,173.152 132.025,173.694 131.235 C 175.518 128.579,175.725 125.753,175.600 105.230 C 175.486 86.431,175.416 85.627,173.672 83.035 C 173.103 82.191,172.762 81.279,172.241 79.213 C 171.471 76.155,171.033 75.173,170.019 74.230 C 169.617 73.856,169.202 73.191,169.049 72.676 C 168.508 70.853,167.709 69.488,166.459 68.251 C 165.766 67.566,164.910 66.448,164.556 65.768 C 164.124 64.936,163.615 64.322,163.003 63.893 C 162.502 63.542,161.906 62.942,161.678 62.560 C 161.146 61.667,159.772 60.293,158.880 59.762 C 158.498 59.534,157.894 58.932,157.538 58.425 C 157.098 57.796,156.501 57.302,155.661 56.871 C 154.984 56.524,153.917 55.716,153.290 55.075 C 151.988 53.745,150.813 53.025,149.068 52.485 C 148.229 52.226,147.623 51.869,147.120 51.338 C 146.211 50.379,145.011 49.855,142.193 49.189 C 139.907 48.649,139.129 48.334,138.043 47.509 C 137.194 46.863,134.814 46.274,131.921 45.993 C 128.970 45.706,106.844 45.552,100.880 45.777 M128.742 46.611 C 132.374 46.908,134.327 47.329,136.742 48.336 C 137.924 48.829,139.731 49.439,140.756 49.691 C 143.478 50.360,144.626 50.834,146.031 51.868 C 146.720 52.376,147.633 52.904,148.060 53.042 C 149.505 53.510,150.781 54.267,152.083 55.428 C 152.796 56.065,153.997 56.947,154.751 57.387 C 155.505 57.827,156.475 58.618,156.907 59.145 C 157.338 59.672,158.185 60.431,158.787 60.831 C 159.425 61.254,160.185 62.015,160.609 62.653 C 161.009 63.255,161.767 64.101,162.294 64.533 C 162.821 64.965,163.615 65.932,164.058 66.683 C 164.501 67.434,165.385 68.640,166.023 69.364 C 167.193 70.692,167.933 71.947,168.401 73.391 C 168.541 73.823,168.988 74.613,169.395 75.146 C 170.407 76.471,171.164 78.240,171.719 80.580 C 171.977 81.662,172.537 83.387,172.964 84.412 C 174.843 88.921,174.878 89.277,174.985 105.023 C 175.103 122.299,174.876 125.365,173.187 129.334 C 172.710 130.454,172.049 132.438,171.717 133.742 C 171.026 136.458,170.517 137.716,169.729 138.650 C 169.425 139.011,168.688 140.344,168.091 141.613 C 167.313 143.269,166.680 144.275,165.851 145.177 C 165.216 145.868,164.404 146.951,164.046 147.585 C 163.689 148.218,162.954 149.131,162.413 149.614 C 161.872 150.097,161.047 151.019,160.578 151.663 C 160.110 152.306,159.281 153.132,158.735 153.497 C 158.189 153.861,157.333 154.623,156.833 155.189 C 156.333 155.754,155.429 156.497,154.824 156.838 C 154.219 157.179,153.176 157.948,152.507 158.545 C 150.997 159.892,150.227 160.372,148.305 161.165 C 147.473 161.508,146.320 162.146,145.742 162.582 C 144.488 163.530,143.648 163.872,140.821 164.585 C 139.646 164.881,137.801 165.500,136.721 165.959 C 132.972 167.555,130.766 167.785,117.866 167.928 C 101.653 168.107,96.023 167.710,92.284 166.122 C 91.258 165.687,89.674 165.124,88.762 164.871 C 87.851 164.618,86.484 164.237,85.725 164.025 C 84.967 163.813,83.895 163.317,83.343 162.924 C 82.792 162.531,81.288 161.697,80.002 161.071 C 78.412 160.298,77.218 159.541,76.273 158.707 C 75.509 158.032,74.355 157.185,73.708 156.824 C 73.062 156.463,72.107 155.668,71.587 155.059 C 71.066 154.450,70.214 153.701,69.693 153.396 C 69.093 153.044,68.488 152.436,68.038 151.734 C 67.648 151.124,66.852 150.223,66.269 149.731 C 65.685 149.239,65.019 148.467,64.788 148.015 C 64.286 147.029,62.782 145.003,62.554 145.003 C 62.255 145.003,60.959 142.844,60.290 141.231 C 59.925 140.353,59.342 139.281,58.993 138.849 C 58.067 137.702,57.473 136.282,56.847 133.721 C 56.541 132.472,56.105 131.027,55.878 130.510 C 54.822 128.109,54.444 126.949,54.158 125.220 C 53.617 121.952,53.392 114.389,53.513 103.573 C 53.661 90.405,53.860 88.519,55.504 84.670 C 55.960 83.603,56.522 81.935,56.753 80.962 C 57.367 78.374,57.938 76.843,58.595 76.023 C 59.291 75.153,59.830 74.171,60.769 72.061 C 61.223 71.041,61.882 70.035,62.629 69.222 C 63.266 68.530,64.079 67.445,64.437 66.811 C 64.795 66.176,65.423 65.356,65.832 64.988 C 66.818 64.102,67.387 63.472,68.201 62.367 C 68.573 61.863,69.409 61.071,70.060 60.606 C 70.712 60.142,71.455 59.482,71.713 59.140 C 72.305 58.354,72.555 58.154,73.935 57.360 C 74.553 57.005,75.531 56.271,76.110 55.729 C 77.387 54.533,78.365 53.918,80.265 53.120 C 81.060 52.786,82.178 52.161,82.751 51.731 C 83.951 50.829,85.320 50.276,87.769 49.705 C 88.724 49.483,90.542 48.873,91.810 48.350 C 94.345 47.306,96.287 46.869,99.492 46.622 C 102.604 46.383,125.847 46.374,128.742 46.611 M236.508 71.088 C 234.830 72.081,234.851 71.913,234.941 83.952 C 235.035 96.329,234.969 95.914,237.050 97.245 C 237.676 97.646,238.253 98.185,238.331 98.443 C 238.595 99.310,239.479 100.261,240.508 100.782 C 241.309 101.188,241.640 101.519,242.045 102.320 C 242.539 103.293,243.683 104.402,244.194 104.402 C 244.952 104.402,245.262 105.203,245.262 107.166 C 245.262 109.127,245.010 109.788,244.262 109.788 C 243.850 109.788,242.346 111.278,241.982 112.047 C 241.792 112.448,241.310 112.983,240.911 113.235 C 239.608 114.060,238.825 114.806,238.412 115.615 C 238.189 116.052,237.751 116.569,237.439 116.762 C 234.947 118.310,235.034 117.833,234.950 130.399 C 234.871 142.448,234.826 142.043,236.354 143.086 L 237.037 143.553 247.726 143.551 C 260.381 143.550,260.149 143.588,261.674 141.292 C 261.933 140.903,262.610 140.336,263.180 140.032 C 263.966 139.612,264.395 139.184,264.961 138.254 C 265.519 137.339,265.990 136.865,266.828 136.375 C 267.607 135.920,268.101 135.445,268.444 134.820 C 269.326 133.214,269.360 133.195,271.379 133.195 C 273.395 133.195,273.566 133.282,274.267 134.655 C 274.683 135.471,275.510 136.201,276.695 136.801 C 277.078 136.994,277.489 137.429,277.648 137.809 C 278.074 138.826,278.909 139.708,279.844 140.130 C 280.426 140.392,280.879 140.820,281.301 141.506 C 281.694 142.145,282.231 142.671,282.800 142.975 L 283.687 143.449 294.666 143.513 C 306.873 143.584,306.532 143.620,307.410 142.198 C 307.805 141.560,307.820 141.131,307.820 130.595 C 307.820 117.963,307.907 118.556,305.829 117.021 C 305.217 116.569,304.532 115.840,304.309 115.401 C 303.882 114.565,303.135 113.860,302.040 113.264 C 301.680 113.067,301.226 112.613,301.030 112.253 C 300.461 111.211,299.742 110.420,299.043 110.067 C 297.614 109.345,297.462 109.060,297.462 107.091 C 297.462 105.103,297.490 105.053,299.041 104.203 C 299.534 103.932,300.102 103.381,300.387 102.895 C 301.024 101.810,301.733 101.112,302.867 100.453 C 303.445 100.118,303.932 99.623,304.193 99.107 C 304.690 98.121,305.322 97.359,305.640 97.359 C 306.022 97.359,307.153 96.071,307.499 95.242 C 307.775 94.580,307.820 92.955,307.820 83.621 L 307.820 72.770 307.350 72.066 C 306.352 70.573,306.702 70.611,294.666 70.681 C 282.104 70.754,282.585 70.666,281.030 73.172 C 280.836 73.484,280.321 73.921,279.884 74.144 C 279.040 74.574,278.109 75.551,277.542 76.601 C 277.352 76.952,276.833 77.425,276.388 77.652 C 275.510 78.100,274.055 79.583,274.055 80.031 C 274.055 80.769,273.336 81.012,271.342 80.951 L 269.404 80.891 268.603 79.679 C 268.162 79.012,267.517 78.313,267.169 78.125 C 266.278 77.644,265.148 76.649,265.148 76.347 C 265.148 75.926,263.857 74.580,262.989 74.095 C 262.542 73.845,261.886 73.221,261.531 72.708 C 261.117 72.109,260.519 71.591,259.858 71.258 L 258.830 70.741 248.058 70.684 L 237.286 70.627 236.508 71.088 M258.399 71.658 C 259.305 71.806,259.584 71.995,260.912 73.354 C 261.734 74.195,262.814 75.270,263.311 75.743 C 263.808 76.216,264.602 77.008,265.075 77.504 C 265.548 77.999,266.340 78.792,266.836 79.264 C 267.331 79.737,268.117 80.553,268.581 81.077 L 269.426 82.030 271.345 82.030 C 273.533 82.030,273.702 81.947,275.092 80.188 C 275.557 79.601,276.329 78.836,276.808 78.489 C 277.288 78.142,278.080 77.349,278.568 76.727 C 279.056 76.106,279.895 75.281,280.432 74.895 C 280.969 74.509,281.706 73.771,282.069 73.256 C 283.310 71.494,282.704 71.578,294.760 71.505 C 306.391 71.435,306.041 71.402,306.810 72.647 C 307.229 73.324,307.235 73.536,307.166 83.846 L 307.095 94.355 306.613 95.131 C 306.347 95.557,305.737 96.189,305.256 96.534 C 304.775 96.879,304.022 97.659,303.582 98.266 C 303.143 98.873,302.334 99.676,301.785 100.050 C 301.237 100.424,300.444 101.230,300.023 101.841 C 299.602 102.452,299.199 102.952,299.127 102.952 C 299.054 102.952,298.464 103.425,297.815 104.004 L 296.634 105.056 296.634 107.133 L 296.634 109.209 297.465 109.964 C 297.923 110.380,298.692 111.123,299.174 111.616 C 299.657 112.109,300.460 112.913,300.959 113.402 C 301.458 113.891,302.250 114.681,302.720 115.157 C 303.189 115.633,304.240 116.693,305.054 117.514 C 307.271 119.747,307.085 118.587,307.164 130.664 L 307.234 141.287 306.393 142.128 L 305.552 142.969 294.930 142.897 C 282.817 142.814,284.041 143.018,281.672 140.680 C 280.792 139.810,279.777 138.809,279.417 138.454 C 279.057 138.100,278.239 137.286,277.600 136.647 C 276.960 136.007,276.176 135.226,275.856 134.909 C 275.536 134.593,274.831 133.845,274.289 133.247 L 273.302 132.160 271.568 132.160 C 269.535 132.160,268.987 132.436,267.837 134.041 C 267.440 134.595,266.649 135.377,266.080 135.778 C 265.510 136.180,264.718 136.966,264.319 137.527 C 263.920 138.087,263.115 138.893,262.529 139.318 C 261.943 139.742,261.137 140.528,260.737 141.063 C 259.381 142.880,259.853 142.812,247.924 142.896 L 237.433 142.969 236.571 142.190 L 235.709 141.412 235.773 130.623 L 235.836 119.834 236.324 119.051 C 236.592 118.620,237.151 118.038,237.566 117.759 C 237.982 117.479,238.698 116.763,239.157 116.167 C 239.617 115.571,240.477 114.707,241.068 114.248 C 241.660 113.789,242.416 113.031,242.749 112.564 C 243.082 112.097,243.807 111.358,244.360 110.922 C 246.225 109.451,246.295 109.314,246.296 107.111 L 246.297 105.159 245.352 104.314 C 244.832 103.850,244.086 103.143,243.695 102.745 C 243.303 102.346,242.505 101.542,241.922 100.958 C 235.620 94.649,236.027 95.141,235.871 93.650 C 235.795 92.922,235.733 87.950,235.733 82.600 L 235.733 72.874 236.437 72.170 L 237.141 71.466 247.260 71.478 C 252.826 71.485,257.838 71.566,258.399 71.658 M109.616 89.805 C 108.896 89.961,108.037 90.257,107.709 90.462 C 101.913 94.075,101.202 94.688,99.491 97.552 C 98.976 98.414,98.245 99.619,97.866 100.229 C 96.177 102.948,96.052 111.174,97.659 113.783 C 101.399 119.853,101.649 120.122,105.986 122.753 C 106.345 122.971,107.063 123.411,107.582 123.732 C 109.342 124.821,114.282 125.237,118.096 124.618 C 119.940 124.319,120.603 124.054,122.250 122.961 C 122.781 122.609,123.805 121.951,124.525 121.500 C 126.870 120.029,127.281 119.553,130.248 114.863 C 131.632 112.675,131.763 112.145,131.895 108.174 C 132.022 104.333,131.758 102.060,131.035 100.777 C 128.444 96.174,127.156 94.543,124.977 93.106 C 120.393 90.081,120.219 89.990,118.464 89.705 C 116.591 89.401,111.195 89.462,109.616 89.805 M118.031 90.497 C 119.366 90.790,119.898 91.017,120.414 91.511 C 120.779 91.861,121.812 92.494,122.709 92.918 C 125.306 94.143,127.861 96.793,128.667 99.097 C 128.822 99.541,129.316 100.320,129.764 100.830 C 131.841 103.191,131.877 110.912,129.822 113.313 C 129.404 113.801,128.903 114.629,128.709 115.153 C 127.786 117.634,125.351 120.127,122.528 121.480 C 121.502 121.971,120.462 122.608,120.216 122.895 C 118.699 124.669,110.085 124.484,107.980 122.633 C 107.499 122.209,106.660 121.695,106.116 121.490 C 103.508 120.509,100.843 117.750,99.815 114.966 C 99.667 114.568,99.196 113.860,98.768 113.394 C 96.894 111.357,96.792 103.014,98.616 101.105 C 98.952 100.753,99.593 99.697,100.039 98.757 C 101.303 96.098,103.861 93.633,106.295 92.728 C 106.823 92.532,107.582 92.053,107.982 91.665 C 109.466 90.224,114.257 89.666,118.031 90.497 " stroke="none" fill="#0e7e7c" fill-rule="evenodd"></path><path id="path3" d="M186.908 36.035 C 186.543 36.258,186.101 36.719,185.924 37.060 C 185.636 37.616,185.603 45.024,185.603 109.080 L 185.603 180.479 186.508 181.384 L 187.413 182.289 203.401 182.289 C 220.806 182.289,220.053 182.339,221.007 181.126 L 221.440 180.576 221.440 108.907 L 221.440 37.238 220.635 36.433 L 219.831 35.629 203.701 35.630 C 188.069 35.631,187.551 35.643,186.908 36.035 M220.025 37.008 C 220.586 37.516,220.622 180.254,220.061 180.874 C 219.735 181.235,218.954 181.253,203.658 181.253 L 187.598 181.253 187.118 180.803 L 186.639 180.352 186.639 108.888 C 186.639 42.679,186.664 37.395,186.982 37.044 C 187.487 36.485,219.409 36.450,220.025 37.008 M99.492 46.622 C 96.287 46.869,94.345 47.306,91.810 48.350 C 90.542 48.873,88.724 49.483,87.769 49.705 C 85.320 50.276,83.951 50.829,82.751 51.731 C 82.178 52.161,81.060 52.786,80.265 53.120 C 78.365 53.918,77.387 54.533,76.110 55.729 C 75.531 56.271,74.553 57.005,73.935 57.360 C 72.555 58.154,72.305 58.354,71.713 59.140 C 71.455 59.482,70.712 60.142,70.060 60.606 C 69.409 61.071,68.573 61.863,68.201 62.367 C 67.387 63.472,66.818 64.102,65.832 64.988 C 65.423 65.356,64.795 66.176,64.437 66.811 C 64.079 67.445,63.266 68.530,62.629 69.222 C 61.882 70.035,61.223 71.041,60.769 72.061 C 59.830 74.171,59.291 75.153,58.595 76.023 C 57.938 76.843,57.367 78.374,56.753 80.962 C 56.522 81.935,55.960 83.603,55.504 84.670 C 53.860 88.519,53.661 90.405,53.513 103.573 C 53.392 114.389,53.617 121.952,54.158 125.220 C 54.444 126.949,54.822 128.109,55.878 130.510 C 56.105 131.027,56.541 132.472,56.847 133.721 C 57.473 136.282,58.067 137.702,58.993 138.849 C 59.342 139.281,59.925 140.353,60.290 141.231 C 60.959 142.844,62.255 145.003,62.554 145.003 C 62.782 145.003,64.286 147.029,64.788 148.015 C 65.019 148.467,65.685 149.239,66.269 149.731 C 66.852 150.223,67.648 151.124,68.038 151.734 C 68.488 152.436,69.093 153.044,69.693 153.396 C 70.214 153.701,71.066 154.450,71.587 155.059 C 72.107 155.668,73.062 156.463,73.708 156.824 C 74.355 157.185,75.509 158.032,76.273 158.707 C 77.218 159.541,78.412 160.298,80.002 161.071 C 81.288 161.697,82.792 162.531,83.343 162.924 C 83.895 163.317,84.967 163.813,85.725 164.025 C 86.484 164.237,87.851 164.618,88.762 164.871 C 89.674 165.124,91.258 165.687,92.284 166.122 C 96.023 167.710,101.653 168.107,117.866 167.928 C 130.766 167.785,132.972 167.555,136.721 165.959 C 137.801 165.500,139.646 164.881,140.821 164.585 C 143.648 163.872,144.488 163.530,145.742 162.582 C 146.320 162.146,147.473 161.508,148.305 161.165 C 150.227 160.372,150.997 159.892,152.507 158.545 C 153.176 157.948,154.219 157.179,154.824 156.838 C 155.429 156.497,156.333 155.754,156.833 155.189 C 157.333 154.623,158.189 153.861,158.735 153.497 C 159.281 153.132,160.110 152.306,160.578 151.663 C 161.047 151.019,161.872 150.097,162.413 149.614 C 162.954 149.131,163.689 148.218,164.046 147.585 C 164.404 146.951,165.216 145.868,165.851 145.177 C 166.680 144.275,167.313 143.269,168.091 141.613 C 168.688 140.344,169.425 139.011,169.729 138.650 C 170.517 137.716,171.026 136.458,171.717 133.742 C 172.049 132.438,172.710 130.454,173.187 129.334 C 174.876 125.365,175.103 122.299,174.985 105.023 C 174.878 89.277,174.843 88.921,172.964 84.412 C 172.537 83.387,171.977 81.662,171.719 80.580 C 171.164 78.240,170.407 76.471,169.395 75.146 C 168.988 74.613,168.541 73.823,168.401 73.391 C 167.933 71.947,167.193 70.692,166.023 69.364 C 165.385 68.640,164.501 67.434,164.058 66.683 C 163.615 65.932,162.821 64.965,162.294 64.533 C 161.767 64.101,161.009 63.255,160.609 62.653 C 160.185 62.015,159.425 61.254,158.787 60.831 C 158.185 60.431,157.338 59.672,156.907 59.145 C 156.475 58.618,155.505 57.827,154.751 57.387 C 153.997 56.947,152.796 56.065,152.083 55.428 C 150.781 54.267,149.505 53.510,148.060 53.042 C 147.633 52.904,146.720 52.376,146.031 51.868 C 144.626 50.834,143.478 50.360,140.756 49.691 C 139.731 49.439,137.924 48.829,136.742 48.336 C 134.327 47.329,132.374 46.908,128.742 46.611 C 125.847 46.374,102.604 46.383,99.492 46.622 M128.883 47.735 C 130.910 47.986,131.560 48.164,133.026 48.867 C 134.885 49.759,137.433 50.457,139.617 50.674 C 141.571 50.868,143.076 51.491,144.317 52.620 C 145.170 53.396,145.685 53.675,146.803 53.970 C 148.679 54.464,149.658 54.970,150.228 55.742 C 150.812 56.532,152.250 57.577,153.896 58.409 C 154.738 58.834,155.313 59.296,155.645 59.816 C 156.312 60.862,156.929 61.394,158.140 61.970 C 158.915 62.338,159.213 62.617,159.385 63.130 C 159.694 64.056,160.612 65.162,161.581 65.774 C 162.137 66.124,162.576 66.658,162.983 67.479 C 163.766 69.057,164.909 70.628,165.698 71.212 C 166.467 71.780,166.976 72.761,167.464 74.616 C 167.749 75.698,168.051 76.258,168.827 77.145 C 169.856 78.320,170.689 80.136,170.689 81.202 C 170.689 83.126,171.728 86.862,172.870 89.048 C 173.827 90.878,173.989 93.475,173.997 107.101 C 174.004 121.769,173.895 123.138,172.471 126.174 C 171.549 128.140,171.039 129.990,170.792 132.263 C 170.587 134.152,169.940 135.942,169.214 136.632 C 168.299 137.502,167.642 138.716,167.306 140.157 C 166.954 141.663,166.653 142.151,165.091 143.748 C 164.371 144.483,163.601 145.566,163.142 146.485 C 162.524 147.727,162.186 148.140,161.306 148.731 C 160.479 149.287,160.084 149.746,159.611 150.699 C 159.061 151.808,158.861 152.009,157.747 152.563 C 156.801 153.034,156.332 153.436,155.808 154.221 C 155.306 154.972,154.809 155.410,153.995 155.816 C 152.401 156.612,151.138 157.520,150.431 158.377 C 149.775 159.173,148.116 160.124,147.383 160.124 C 146.708 160.124,144.464 161.312,143.923 161.956 C 143.361 162.624,141.587 163.369,140.135 163.547 C 136.956 163.936,135.338 164.357,133.261 165.333 C 130.269 166.740,127.719 166.959,114.345 166.957 C 101.125 166.956,98.080 166.705,95.494 165.405 C 93.733 164.520,92.418 164.142,89.728 163.749 C 86.670 163.302,85.691 162.940,84.412 161.781 C 83.370 160.837,82.845 160.595,80.397 159.925 C 79.769 159.753,79.193 159.368,78.527 158.673 C 77.425 157.524,75.741 156.316,74.440 155.740 C 73.862 155.484,73.323 155.020,72.915 154.426 C 72.200 153.388,71.297 152.645,70.199 152.192 C 69.670 151.974,69.381 151.684,69.214 151.206 C 68.875 150.233,68.070 149.252,67.013 148.525 C 66.419 148.116,65.955 147.577,65.700 146.999 C 65.124 145.698,63.915 144.014,62.766 142.913 C 62.072 142.247,61.686 141.671,61.514 141.043 C 60.845 138.594,60.602 138.070,59.658 137.027 C 58.552 135.806,58.143 134.764,57.791 132.263 C 57.397 129.470,56.988 127.996,56.040 125.945 C 54.732 123.117,54.657 122.283,54.541 109.186 C 54.407 94.175,54.613 91.314,56.043 88.341 C 56.879 86.603,57.477 84.413,57.809 81.868 C 58.080 79.791,58.691 78.187,59.456 77.542 C 60.147 76.959,61.033 75.313,61.222 74.262 C 61.450 72.996,61.994 72.081,63.322 70.730 C 64.041 69.999,64.870 68.853,65.359 67.912 C 66.010 66.660,66.401 66.177,67.219 65.616 C 67.980 65.093,68.420 64.578,68.876 63.677 C 69.426 62.593,69.642 62.378,70.741 61.831 C 71.690 61.358,72.155 60.958,72.708 60.136 C 73.296 59.265,73.727 58.911,74.980 58.272 C 75.886 57.810,77.029 56.993,77.738 56.301 C 79.196 54.877,79.998 54.370,81.098 54.178 C 82.345 53.959,83.467 53.387,84.634 52.376 C 85.824 51.343,87.068 50.888,89.637 50.545 C 92.085 50.217,93.496 49.814,95.495 48.871 C 98.232 47.579,99.440 47.487,114.042 47.460 C 123.729 47.442,127.010 47.502,128.883 47.735 M236.437 72.170 L 235.733 72.874 235.733 82.600 C 235.733 87.950,235.795 92.922,235.871 93.650 C 236.027 95.141,235.620 94.649,241.922 100.958 C 242.505 101.542,243.303 102.346,243.695 102.745 C 244.086 103.143,244.832 103.850,245.352 104.314 L 246.297 105.159 246.296 107.111 C 246.295 109.314,246.225 109.451,244.360 110.922 C 243.807 111.358,243.082 112.097,242.749 112.564 C 242.416 113.031,241.660 113.789,241.068 114.248 C 240.477 114.707,239.617 115.571,239.157 116.167 C 238.698 116.763,237.982 117.479,237.566 117.759 C 237.151 118.038,236.592 118.620,236.324 119.051 L 235.836 119.834 235.773 130.623 L 235.709 141.412 236.571 142.190 L 237.433 142.969 247.924 142.896 C 259.853 142.812,259.381 142.880,260.737 141.063 C 261.137 140.528,261.943 139.742,262.529 139.318 C 263.115 138.893,263.920 138.087,264.319 137.527 C 264.718 136.966,265.510 136.180,266.080 135.778 C 266.649 135.377,267.440 134.595,267.837 134.041 C 268.987 132.436,269.535 132.160,271.568 132.160 L 273.302 132.160 274.289 133.247 C 274.831 133.845,275.536 134.593,275.856 134.909 C 276.176 135.226,276.960 136.007,277.600 136.647 C 278.239 137.286,279.057 138.100,279.417 138.454 C 279.777 138.809,280.792 139.810,281.672 140.680 C 284.041 143.018,282.817 142.814,294.930 142.897 L 305.552 142.969 306.393 142.128 L 307.234 141.287 307.164 130.664 C 307.085 118.587,307.271 119.747,305.054 117.514 C 304.240 116.693,303.189 115.633,302.720 115.157 C 302.250 114.681,301.458 113.891,300.959 113.402 C 300.460 112.913,299.657 112.109,299.174 111.616 C 298.692 111.123,297.923 110.380,297.465 109.964 L 296.634 109.209 296.634 107.133 L 296.634 105.056 297.815 104.004 C 298.464 103.425,299.054 102.952,299.127 102.952 C 299.199 102.952,299.602 102.452,300.023 101.841 C 300.444 101.230,301.237 100.424,301.785 100.050 C 302.334 99.676,303.143 98.873,303.582 98.266 C 304.022 97.659,304.775 96.879,305.256 96.534 C 305.737 96.189,306.347 95.557,306.613 95.131 L 307.095 94.355 307.166 83.846 C 307.235 73.536,307.229 73.324,306.810 72.647 C 306.041 71.402,306.391 71.435,294.760 71.505 C 282.704 71.578,283.310 71.494,282.069 73.256 C 281.706 73.771,280.969 74.509,280.432 74.895 C 279.895 75.281,279.056 76.106,278.568 76.727 C 278.080 77.349,277.288 78.142,276.808 78.489 C 276.329 78.836,275.557 79.601,275.092 80.188 C 273.702 81.947,273.533 82.030,271.345 82.030 L 269.426 82.030 268.581 81.077 C 268.117 80.553,267.331 79.737,266.836 79.264 C 266.340 78.792,265.548 77.999,265.075 77.504 C 264.602 77.008,263.808 76.216,263.311 75.743 C 262.814 75.270,261.734 74.195,260.912 73.354 C 258.996 71.393,259.723 71.493,247.260 71.478 L 237.141 71.466 236.437 72.170 M256.673 72.512 C 258.960 72.797,259.244 72.936,259.717 73.992 C 260.179 75.024,260.577 75.417,261.835 76.082 C 262.460 76.413,262.893 76.846,263.224 77.471 C 263.881 78.714,264.269 79.106,265.347 79.621 C 266.061 79.961,266.417 80.322,266.907 81.198 C 267.867 82.918,268.624 83.265,271.427 83.270 C 272.681 83.271,273.867 83.171,274.120 83.041 C 274.923 82.630,275.905 81.561,276.143 80.842 C 276.326 80.285,276.604 80.032,277.498 79.609 C 278.645 79.066,279.225 78.449,279.737 77.228 C 279.950 76.720,280.340 76.379,281.235 75.919 C 282.261 75.392,282.530 75.128,283.011 74.178 C 283.323 73.563,283.628 73.010,283.687 72.950 C 284.452 72.186,304.907 71.969,305.709 72.717 L 306.163 73.139 306.163 82.444 C 306.163 88.321,306.076 92.332,305.927 93.330 L 305.692 94.912 304.840 95.279 C 303.752 95.749,302.894 96.609,302.421 97.705 C 302.130 98.381,301.848 98.658,301.134 98.974 C 300.015 99.469,299.399 100.089,298.876 101.244 C 298.583 101.893,298.276 102.211,297.714 102.445 C 294.327 103.860,294.121 110.146,297.410 111.709 C 298.173 112.072,298.515 112.411,299.013 113.304 C 299.612 114.376,300.099 114.818,301.564 115.619 C 301.937 115.823,302.352 116.325,302.592 116.862 C 303.058 117.903,303.429 118.269,304.699 118.937 C 306.033 119.638,306.019 119.517,306.109 130.885 C 306.185 140.336,306.164 141.136,305.834 141.501 C 305.492 141.879,305.068 141.894,295.929 141.873 C 284.551 141.846,283.871 141.775,283.304 140.549 C 282.783 139.423,282.211 138.839,281.048 138.248 C 280.292 137.863,279.949 137.515,279.553 136.735 C 279.006 135.655,278.297 134.986,277.225 134.538 C 276.771 134.348,276.404 133.947,276.056 133.262 C 274.317 129.832,268.172 129.953,266.713 133.447 C 266.478 134.008,266.160 134.316,265.512 134.609 C 264.356 135.132,263.736 135.748,263.241 136.867 C 262.918 137.598,262.653 137.860,261.916 138.176 C 260.823 138.644,260.042 139.431,259.616 140.493 C 259.116 141.740,259.002 141.753,247.672 141.843 L 237.550 141.924 237.056 141.459 L 236.561 140.995 236.566 132.382 C 236.570 124.536,236.811 119.826,237.230 119.407 C 237.283 119.354,237.830 119.056,238.446 118.744 C 239.388 118.267,239.668 117.984,240.213 116.957 C 240.676 116.086,241.049 115.658,241.521 115.460 C 242.722 114.955,243.365 114.348,243.901 113.217 C 244.318 112.335,244.575 112.052,245.119 111.872 C 248.678 110.697,248.775 104.333,245.262 102.500 C 244.599 102.154,244.219 101.775,243.946 101.188 C 243.422 100.058,242.839 99.464,241.740 98.938 C 241.054 98.610,240.707 98.275,240.425 97.667 C 239.903 96.543,239.330 95.959,238.170 95.369 C 237.552 95.054,237.151 94.698,237.085 94.405 C 236.358 91.194,236.298 73.533,237.012 72.774 L 237.462 72.294 246.197 72.294 C 251.054 72.294,255.705 72.391,256.673 72.512 M108.654 88.662 C 107.051 88.946,105.848 89.483,104.932 90.323 C 104.469 90.747,103.279 91.616,102.287 92.254 C 100.681 93.287,100.373 93.591,99.490 95.012 C 98.945 95.890,98.096 97.050,97.604 97.590 C 95.900 99.459,95.349 102.474,95.564 108.752 C 95.731 113.618,96.113 115.080,97.663 116.796 C 98.411 117.624,99.542 119.255,100.052 120.240 C 100.233 120.590,100.999 121.235,101.891 121.787 C 102.731 122.308,103.932 123.175,104.559 123.713 C 108.011 126.680,120.346 126.885,123.563 124.030 C 124.109 123.545,125.312 122.678,126.235 122.102 C 127.712 121.181,128.040 120.859,128.972 119.409 C 129.554 118.504,130.414 117.336,130.884 116.814 C 133.787 113.588,133.932 100.699,131.098 97.721 C 130.637 97.237,129.779 96.072,129.190 95.133 C 128.227 93.595,127.945 93.313,126.359 92.302 C 125.391 91.684,124.203 90.802,123.718 90.341 C 122.144 88.844,120.947 88.600,114.863 88.535 C 112.015 88.505,109.221 88.562,108.654 88.662 M118.464 89.705 C 120.219 89.990,120.393 90.081,124.977 93.106 C 127.156 94.543,128.444 96.174,131.035 100.777 C 131.758 102.060,132.022 104.333,131.895 108.174 C 131.763 112.145,131.632 112.675,130.248 114.863 C 127.281 119.553,126.870 120.029,124.525 121.500 C 123.805 121.951,122.781 122.609,122.250 122.961 C 120.603 124.054,119.940 124.319,118.096 124.618 C 114.282 125.237,109.342 124.821,107.582 123.732 C 107.063 123.411,106.345 122.971,105.986 122.753 C 101.649 120.122,101.399 119.853,97.659 113.783 C 96.052 111.174,96.177 102.948,97.866 100.229 C 98.245 99.619,98.976 98.414,99.491 97.552 C 101.202 94.688,101.913 94.075,107.709 90.462 C 109.112 89.587,115.126 89.163,118.464 89.705 " stroke="none" fill="#14948c" fill-rule="evenodd"></path><path id="path4" d="M185.864 34.378 C 184.879 34.616,184.616 34.919,184.361 36.111 C 183.985 37.866,184.164 181.797,184.543 182.534 C 185.121 183.659,184.711 183.635,203.625 183.635 C 222.781 183.635,222.053 183.683,222.589 182.401 C 222.908 181.636,223.026 36.784,222.709 35.648 C 222.306 34.207,223.374 34.287,203.972 34.249 C 194.382 34.231,186.233 34.289,185.864 34.378 M220.766 35.454 C 222.415 36.473,222.259 28.790,222.264 108.945 C 222.269 189.744,222.453 181.436,220.635 182.458 L 219.830 182.910 203.597 182.910 C 185.495 182.910,186.457 182.985,185.452 181.482 L 184.982 180.778 184.983 108.980 C 184.983 37.703,184.986 37.178,185.395 36.508 C 186.369 34.910,185.167 35.009,203.601 35.009 L 220.044 35.008 220.766 35.454 M92.001 45.169 C 89.408 45.381,88.533 45.744,87.369 47.092 L 86.419 48.192 84.587 48.451 C 80.352 49.050,79.807 49.316,77.879 51.727 C 77.768 51.865,77.282 52.078,76.799 52.200 C 74.743 52.720,74.501 52.878,74.086 53.969 C 73.871 54.535,73.631 55.130,73.552 55.293 C 73.473 55.455,72.822 55.707,72.106 55.853 C 70.600 56.161,70.269 56.385,69.860 57.380 C 69.501 58.251,68.811 59.037,68.405 59.037 C 67.567 59.037,66.713 59.718,66.368 60.661 C 65.939 61.833,65.452 62.383,64.584 62.676 C 63.703 62.974,63.226 63.674,62.972 65.044 C 62.767 66.152,62.369 66.701,61.773 66.701 C 60.539 66.701,59.994 67.403,59.227 69.978 C 59.052 70.566,58.779 70.968,58.429 71.149 C 56.977 71.905,56.191 73.521,55.712 76.740 L 55.340 79.234 54.176 80.281 C 52.046 82.200,51.900 84.316,52.056 111.134 C 52.180 132.636,52.106 131.827,54.162 134.017 C 55.400 135.335,55.458 135.445,55.594 136.727 C 55.998 140.554,57.066 142.753,58.826 143.383 C 58.927 143.419,59.193 144.137,59.418 144.977 C 59.898 146.774,60.303 147.246,61.658 147.590 C 62.726 147.861,62.783 147.950,63.072 149.796 C 63.204 150.643,63.972 151.525,64.746 151.720 C 65.450 151.896,66.010 152.499,66.177 153.258 C 66.387 154.216,67.044 154.910,67.978 155.162 C 68.886 155.406,69.808 156.238,69.808 156.812 C 69.808 157.379,70.823 158.239,71.644 158.368 C 73.489 158.657,73.579 158.714,73.850 159.782 C 74.194 161.138,74.632 161.509,76.482 162.012 C 77.834 162.380,78.095 162.525,78.303 163.028 C 78.844 164.335,80.521 165.203,83.311 165.622 C 84.486 165.798,85.638 165.982,85.871 166.030 C 86.103 166.078,86.802 166.635,87.424 167.267 C 89.450 169.327,90.765 169.432,114.345 169.434 C 137.997 169.435,139.081 169.348,141.139 167.273 L 142.413 165.988 144.628 165.730 C 147.634 165.380,150.388 163.981,150.388 162.804 C 150.388 162.566,151.496 162.098,152.506 161.909 C 153.612 161.702,154.437 160.925,154.713 159.829 C 154.986 158.743,155.003 158.731,156.431 158.463 C 157.752 158.215,158.476 157.725,158.739 156.901 C 159.009 156.058,159.650 155.406,160.362 155.250 C 161.231 155.059,162.143 154.209,162.307 153.438 C 162.493 152.563,162.942 152.072,163.959 151.633 C 165.058 151.158,165.274 150.863,165.572 149.424 C 165.891 147.888,165.974 147.771,166.848 147.607 C 167.883 147.413,168.783 146.581,168.949 145.663 C 169.196 144.301,169.646 143.459,170.384 142.980 C 171.845 142.031,172.475 140.545,172.972 136.870 L 173.218 135.056 174.344 134.068 C 176.476 132.198,176.482 132.120,176.482 107.198 C 176.482 82.265,176.482 82.269,174.409 80.295 L 173.217 79.160 172.863 76.714 C 172.389 73.435,171.140 71.051,169.897 71.051 C 169.700 71.051,169.222 69.784,168.949 68.540 C 168.754 67.652,168.164 67.112,166.958 66.719 C 165.828 66.350,165.820 66.342,165.678 65.356 C 165.424 63.581,164.676 62.558,163.633 62.558 C 163.252 62.558,162.410 61.663,162.406 61.253 C 162.397 60.252,161.195 59.037,160.216 59.037 C 159.802 59.037,158.890 58.213,158.885 57.835 C 158.871 56.750,157.877 56.018,156.067 55.759 C 155.177 55.632,155.036 55.542,154.874 54.995 C 154.289 53.020,154.069 52.827,151.579 52.109 C 150.924 51.920,150.388 51.668,150.388 51.549 C 150.388 50.300,148.012 49.052,144.726 48.576 L 142.279 48.222 141.145 47.031 C 139.797 45.616,139.255 45.416,136.031 45.149 C 133.284 44.922,94.810 44.939,92.001 45.169 M131.921 45.993 C 134.814 46.274,137.194 46.863,138.043 47.509 C 139.129 48.334,139.907 48.649,142.193 49.189 C 145.011 49.855,146.211 50.379,147.120 51.338 C 147.623 51.869,148.229 52.226,149.068 52.485 C 150.813 53.025,151.988 53.745,153.290 55.075 C 153.917 55.716,154.984 56.524,155.661 56.871 C 156.501 57.302,157.098 57.796,157.538 58.425 C 157.894 58.932,158.498 59.534,158.880 59.762 C 159.772 60.293,161.146 61.667,161.678 62.560 C 161.906 62.942,162.502 63.542,163.003 63.893 C 163.615 64.322,164.124 64.936,164.556 65.768 C 164.910 66.448,165.766 67.566,166.459 68.251 C 167.709 69.488,168.508 70.853,169.049 72.676 C 169.202 73.191,169.617 73.856,170.019 74.230 C 171.033 75.173,171.471 76.155,172.241 79.213 C 172.762 81.279,173.103 82.191,173.672 83.035 C 175.416 85.627,175.486 86.431,175.600 105.230 C 175.725 125.753,175.518 128.579,173.694 131.235 C 173.152 132.025,172.801 132.971,172.245 135.137 C 171.398 138.443,171.325 138.610,170.246 139.732 C 169.724 140.275,169.253 141.082,168.917 142.011 C 168.248 143.858,167.213 145.570,166.515 145.984 C 166.213 146.164,165.654 146.809,165.272 147.420 C 164.890 148.030,164.392 148.824,164.164 149.184 C 163.936 149.544,163.343 150.126,162.847 150.476 C 162.350 150.827,161.711 151.533,161.427 152.046 C 160.720 153.322,160.443 153.600,159.172 154.317 C 158.567 154.659,157.962 155.150,157.829 155.408 C 157.396 156.251,156.519 157.041,155.458 157.545 C 154.439 158.029,153.081 159.163,153.081 159.530 C 153.081 159.861,150.743 161.221,149.357 161.696 C 148.547 161.974,147.633 162.486,147.074 162.975 C 145.774 164.113,145.186 164.376,142.384 165.072 C 139.633 165.755,139.197 165.920,138.179 166.661 C 136.017 168.234,133.738 168.437,116.961 168.555 C 96.278 168.701,92.728 168.413,89.842 166.352 C 89.230 165.914,88.310 165.573,86.761 165.209 C 83.586 164.462,82.417 163.976,81.552 163.041 C 81.061 162.510,80.433 162.113,79.710 161.876 C 77.814 161.256,76.599 160.529,75.367 159.278 C 74.712 158.612,73.632 157.793,72.967 157.457 C 72.107 157.023,71.521 156.529,70.934 155.741 C 70.480 155.133,69.804 154.491,69.431 154.314 C 68.501 153.875,67.575 152.962,67.155 152.073 C 66.963 151.665,66.312 150.963,65.711 150.515 C 64.909 149.917,64.421 149.326,63.883 148.302 C 63.415 147.412,62.777 146.592,62.123 146.041 C 61.056 145.141,60.219 143.732,59.563 141.730 C 59.326 141.007,58.929 140.378,58.399 139.887 C 57.492 139.049,56.955 137.799,56.330 135.077 C 55.829 132.890,55.588 132.245,54.954 131.383 C 53.136 128.913,52.826 125.382,52.828 107.198 C 52.829 88.834,53.158 85.098,54.960 82.935 C 55.534 82.246,55.749 81.640,56.457 78.717 C 57.015 76.414,57.785 74.762,58.528 74.275 C 58.812 74.089,59.248 73.301,59.647 72.252 C 60.459 70.114,61.092 69.123,62.366 67.991 C 62.926 67.493,63.586 66.632,63.875 66.023 C 64.397 64.925,65.180 64.048,66.031 63.610 C 66.290 63.477,66.790 62.856,67.143 62.230 C 67.737 61.177,68.853 60.073,69.321 60.073 C 69.567 60.073,70.781 58.894,71.424 58.032 C 71.686 57.680,72.432 57.106,73.081 56.756 C 74.483 56.000,74.947 55.627,75.551 54.773 C 76.050 54.067,77.864 53.022,79.673 52.400 C 80.396 52.151,81.129 51.706,81.580 51.241 C 82.508 50.285,83.507 49.847,86.218 49.206 C 88.879 48.578,89.382 48.391,90.147 47.747 C 91.539 46.576,94.598 46.014,100.880 45.777 C 106.844 45.552,128.970 45.706,131.921 45.993 M236.313 70.010 C 234.070 70.414,234.178 69.741,234.184 83.273 C 234.191 97.913,234.052 97.008,236.665 99.466 C 237.007 99.787,237.348 100.121,237.423 100.207 C 237.573 100.376,238.743 101.552,239.086 101.877 C 239.203 101.988,239.612 102.391,239.995 102.774 C 240.377 103.157,240.786 103.563,240.903 103.677 C 241.019 103.791,241.357 104.187,241.653 104.557 C 241.949 104.927,242.323 105.230,242.483 105.230 C 243.163 105.230,242.869 108.814,242.156 109.236 C 241.815 109.437,241.440 109.781,241.323 109.999 C 241.145 110.333,240.348 111.151,238.300 113.102 C 233.907 117.288,234.211 116.002,234.193 130.502 C 234.178 143.289,234.171 143.198,235.248 143.904 C 235.865 144.308,259.043 144.496,260.858 144.111 C 261.726 143.927,263.594 142.273,267.020 138.654 C 267.651 137.987,268.413 137.281,268.713 137.085 C 269.014 136.888,269.319 136.539,269.392 136.308 C 269.512 135.930,269.700 135.888,271.281 135.888 C 273.210 135.888,272.852 135.707,274.909 137.721 C 275.066 137.875,275.474 138.271,275.816 138.601 C 276.157 138.931,276.514 139.288,276.608 139.393 C 276.753 139.556,277.679 140.492,278.437 141.242 C 278.552 141.355,278.906 141.712,279.225 142.034 C 280.248 143.069,280.981 143.696,281.512 143.991 C 282.256 144.403,305.872 144.533,307.102 144.131 C 308.693 143.612,308.648 144.002,308.643 130.606 C 308.637 116.430,308.781 117.415,306.378 115.035 C 306.013 114.674,305.606 114.270,305.473 114.138 C 305.339 114.006,304.089 112.740,302.693 111.325 L 300.155 108.753 300.155 107.006 C 300.155 105.421,300.195 105.246,300.584 105.122 C 300.820 105.048,301.169 104.735,301.361 104.429 C 301.552 104.122,302.254 103.361,302.920 102.738 C 304.440 101.317,304.814 100.943,306.681 98.983 C 307.960 97.640,308.227 97.234,308.420 96.332 C 308.729 94.891,308.734 72.508,308.426 71.397 C 308.005 69.881,308.291 69.912,294.666 69.914 C 280.754 69.915,281.717 69.785,279.489 71.963 C 277.274 74.128,277.165 74.236,275.861 75.596 C 275.203 76.282,274.481 76.941,274.258 77.061 C 274.035 77.180,273.709 77.555,273.534 77.893 C 273.036 78.856,270.031 78.844,269.315 77.876 C 269.058 77.528,268.643 77.151,268.393 77.037 C 268.144 76.923,267.780 76.552,267.585 76.213 C 267.391 75.874,266.949 75.436,266.605 75.240 C 266.261 75.044,265.978 74.784,265.977 74.663 C 265.976 74.395,264.892 73.330,264.618 73.329 C 264.511 73.328,264.268 73.056,264.080 72.725 C 263.891 72.394,263.472 71.952,263.148 71.743 C 262.824 71.535,262.391 71.157,262.186 70.904 C 261.982 70.651,261.469 70.336,261.047 70.205 C 260.116 69.915,237.814 69.739,236.313 70.010 M259.858 71.258 C 260.519 71.591,261.117 72.109,261.531 72.708 C 261.886 73.221,262.542 73.845,262.989 74.095 C 263.857 74.580,265.148 75.926,265.148 76.347 C 265.148 76.649,266.278 77.644,267.169 78.125 C 267.517 78.313,268.162 79.012,268.603 79.679 L 269.404 80.891 271.342 80.951 C 273.336 81.012,274.055 80.769,274.055 80.031 C 274.055 79.583,275.510 78.100,276.388 77.652 C 276.833 77.425,277.352 76.952,277.542 76.601 C 278.109 75.551,279.040 74.574,279.884 74.144 C 280.321 73.921,280.836 73.484,281.030 73.172 C 282.585 70.666,282.104 70.754,294.666 70.681 C 306.702 70.611,306.352 70.573,307.350 72.066 L 307.820 72.770 307.820 83.621 C 307.820 92.955,307.775 94.580,307.499 95.242 C 307.153 96.071,306.022 97.359,305.640 97.359 C 305.322 97.359,304.690 98.121,304.193 99.107 C 303.932 99.623,303.445 100.118,302.867 100.453 C 301.733 101.112,301.024 101.810,300.387 102.895 C 300.102 103.381,299.534 103.932,299.041 104.203 C 297.490 105.053,297.462 105.103,297.462 107.091 C 297.462 109.060,297.614 109.345,299.043 110.067 C 299.742 110.420,300.461 111.211,301.030 112.253 C 301.226 112.613,301.680 113.067,302.040 113.264 C 303.135 113.860,303.882 114.565,304.309 115.401 C 304.532 115.840,305.217 116.569,305.829 117.021 C 307.907 118.556,307.820 117.963,307.820 130.595 C 307.820 141.131,307.805 141.560,307.410 142.198 C 306.532 143.620,306.873 143.584,294.666 143.513 L 283.687 143.449 282.800 142.975 C 282.231 142.671,281.694 142.145,281.301 141.506 C 280.879 140.820,280.426 140.392,279.844 140.130 C 278.909 139.708,278.074 138.826,277.648 137.809 C 277.489 137.429,277.078 136.994,276.695 136.801 C 275.510 136.201,274.683 135.471,274.267 134.655 C 273.566 133.282,273.395 133.195,271.379 133.195 C 269.360 133.195,269.326 133.214,268.444 134.820 C 268.101 135.445,267.607 135.920,266.828 136.375 C 265.990 136.865,265.519 137.339,264.961 138.254 C 264.395 139.184,263.966 139.612,263.180 140.032 C 262.610 140.336,261.933 140.903,261.674 141.292 C 260.149 143.588,260.381 143.550,247.726 143.551 L 237.037 143.553 236.354 143.086 C 234.826 142.043,234.871 142.448,234.950 130.399 C 235.034 117.833,234.947 118.310,237.439 116.762 C 237.751 116.569,238.189 116.052,238.412 115.615 C 238.825 114.806,239.608 114.060,240.911 113.235 C 241.310 112.983,241.792 112.448,241.982 112.047 C 242.346 111.278,243.850 109.788,244.262 109.788 C 245.010 109.788,245.262 109.127,245.262 107.166 C 245.262 105.203,244.952 104.402,244.194 104.402 C 243.683 104.402,242.539 103.293,242.045 102.320 C 241.640 101.519,241.309 101.188,240.508 100.782 C 239.479 100.261,238.595 99.310,238.331 98.443 C 238.253 98.185,237.676 97.646,237.050 97.245 C 234.969 95.914,235.035 96.329,234.941 83.952 C 234.851 71.913,234.830 72.081,236.508 71.088 L 237.286 70.627 248.058 70.684 L 258.830 70.741 259.858 71.258 M111.652 90.255 C 109.765 90.583,108.658 91.008,107.982 91.665 C 107.582 92.053,106.823 92.532,106.295 92.728 C 103.861 93.633,101.303 96.098,100.039 98.757 C 99.593 99.697,98.952 100.753,98.616 101.105 C 96.792 103.014,96.894 111.357,98.768 113.394 C 99.196 113.860,99.667 114.568,99.815 114.966 C 100.843 117.750,103.508 120.509,106.116 121.490 C 106.660 121.695,107.499 122.209,107.980 122.633 C 110.085 124.484,118.699 124.669,120.216 122.895 C 120.462 122.608,121.502 121.971,122.528 121.480 C 125.351 120.127,127.786 117.634,128.709 115.153 C 128.903 114.629,129.404 113.801,129.822 113.313 C 131.877 110.912,131.841 103.191,129.764 100.830 C 129.316 100.320,128.822 99.541,128.667 99.097 C 127.861 96.793,125.306 94.143,122.709 92.918 C 121.812 92.494,120.779 91.861,120.414 91.511 C 119.294 90.437,114.532 89.755,111.652 90.255 M117.074 91.818 C 117.682 92.928,119.226 93.725,121.408 94.054 C 123.437 94.360,123.873 94.549,123.874 95.128 C 123.876 96.202,125.247 97.566,126.324 97.566 C 126.912 97.566,127.116 97.943,127.270 99.319 C 127.581 102.083,128.358 103.731,129.666 104.398 L 130.502 104.825 130.502 107.096 L 130.502 109.368 129.726 109.862 C 128.234 110.810,127.737 111.796,127.314 114.656 C 127.102 116.091,127.003 116.341,126.574 116.520 C 124.677 117.314,124.396 117.543,124.053 118.577 C 123.626 119.865,123.354 120.056,121.738 120.207 C 119.322 120.433,116.831 121.811,116.831 122.923 C 116.831 123.276,115.909 123.460,114.164 123.457 C 112.288 123.453,111.908 123.315,111.521 122.498 C 110.967 121.331,108.472 120.145,106.569 120.145 C 105.331 120.145,104.895 119.849,104.640 118.835 C 104.364 117.740,103.530 116.946,102.439 116.742 C 101.610 116.586,101.295 116.070,101.295 114.871 C 101.295 112.968,100.109 110.473,98.941 109.919 C 98.109 109.524,97.986 109.160,97.986 107.095 C 97.986 105.140,98.112 104.673,98.679 104.531 C 99.832 104.241,100.975 102.125,101.211 99.845 C 101.398 98.031,101.619 97.633,102.519 97.489 C 103.523 97.329,104.315 96.586,104.596 95.542 C 104.882 94.482,105.085 94.336,106.499 94.178 C 109.259 93.868,110.722 93.120,111.723 91.507 C 112.073 90.942,112.094 90.937,114.334 90.937 L 116.592 90.937 117.074 91.818 " stroke="none" fill="#044a4a" fill-rule="evenodd"></path></g></svg>